<?xml version="1.0" encoding="UTF-8" standalone="no"?>
<!-- Created with Inkscape (http://www.inkscape.org/) -->

<svg
   width="250"
   height="250"
   viewBox="0 0 66.145832 66.145833"
   version="1.1"
   id="svg1"
   xml:space="preserve"
   inkscape:version="1.3 (0e150ed6c4, 2023-07-21)"
   sodipodi:docname="logo.svg"
   xmlns:inkscape="http://www.inkscape.org/namespaces/inkscape"
   xmlns:sodipodi="http://sodipodi.sourceforge.net/DTD/sodipodi-0.dtd"
   xmlns:xlink="http://www.w3.org/1999/xlink"
   xmlns="http://www.w3.org/2000/svg"
   xmlns:svg="http://www.w3.org/2000/svg"><sodipodi:namedview
     id="namedview1"
     pagecolor="#ffffff"
     bordercolor="#000000"
     borderopacity="0.25"
     inkscape:showpageshadow="2"
     inkscape:pageopacity="0.0"
     inkscape:pagecheckerboard="0"
     inkscape:deskcolor="#d1d1d1"
     inkscape:document-units="mm"
     inkscape:zoom="0.35355339"
     inkscape:cx="473.76154"
     inkscape:cy="63.63961"
     inkscape:window-width="2496"
     inkscape:window-height="1601"
     inkscape:window-x="-8"
     inkscape:window-y="-8"
     inkscape:window-maximized="1"
     inkscape:current-layer="g49"
     showgrid="false" /><defs
     id="defs1"><linearGradient
       id="linearGradient44"><stop
         style="stop-color:#ffffff;stop-opacity:1;"
         offset="0"
         id="stop43" /><stop
         style="stop-color:#f0f0f0;stop-opacity:1;"
         offset="1"
         id="stop44" /></linearGradient><linearGradient
       id="swatch40"><stop
         style="stop-color:#f2f2f2;stop-opacity:1;"
         offset="0"
         id="stop40" /></linearGradient><linearGradient
       id="swatch39"
       inkscape:swatch="solid"><stop
         style="stop-color:#666666;stop-opacity:1;"
         offset="0"
         id="stop39" /></linearGradient><pattern
       inkscape:collect="always"
       xlink:href="#Strips1_1.5"
       preserveAspectRatio="xMidYMid"
       id="pattern36"
       patternTransform="matrix(1.3481911,-0.65755673,0.65755673,1.3481911,0,0)"
       x="-1"
       y="0" /><pattern
       inkscape:collect="always"
       xlink:href="#Strips1_1.5"
       preserveAspectRatio="xMidYMid"
       id="pattern35"
       patternTransform="matrix(1.3594616,-0.63392736,0.63392736,1.3594616,0,0)"
       x="1"
       y="0" /><pattern
       inkscape:collect="always"
       patternUnits="userSpaceOnUse"
       width="2.5"
       height="1"
       patternTransform="translate(0,0) scale(2,2)"
       preserveAspectRatio="xMidYMid"
       id="Strips1_1.5"
       style="fill:#222222"
       inkscape:stockid="Stripes 02 (2:3)"
       inkscape:isstock="true"
       inkscape:label="Stripes 02 (2:3)">&#10;      <rect
   style="stroke:none"
   x="0"
   y="-0.5"
   width="1"
   height="2"
   id="rect140" />&#10;    </pattern><linearGradient
       id="linearGradient2"
       inkscape:swatch="gradient"><stop
         style="stop-color:#5ae6ab;stop-opacity:1;"
         offset="0"
         id="stop2" /><stop
         style="stop-color:#bce798;stop-opacity:1;"
         offset="1"
         id="stop3" /></linearGradient><clipPath
       clipPathUnits="userSpaceOnUse"
       id="clipPath52"><path
         id="path52"
         style="stroke-width:0.1;stroke-linecap:square;paint-order:markers fill stroke;stop-color:#000000"
         d="m -880.82767,-187.29769 h 1640.84 v 73.28155 h -1640.84 z" /></clipPath><rect
       x="44.256393"
       y="122.42353"
       width="27.013641"
       height="24.139851"
       id="rect114" /><inkscape:perspective
       sodipodi:type="inkscape:persp3d"
       inkscape:vp_x="0 : -0.85417698 : 1"
       inkscape:vp_y="0 : 999.99997 : 0"
       inkscape:vp_z="720.00001 : -0.85417698 : 1"
       inkscape:persp3d-origin="360 : -77.520837 : 1"
       id="perspective289" /><clipPath
       id="cp3"><polygon
         id="polygon1797"
         points="73,203.563 95,203.563 95,190 73,190 " /></clipPath><clipPath
       id="cp5"><polygon
         id="polygon1821"
         points="73,203.563 95,203.563 95,190 73,190 " /></clipPath><clipPath
       id="cp7"><polygon
         id="polygon1845"
         points="73,203.563 88,203.563 88,190 73,190 " /></clipPath><clipPath
       id="cp9"><polygon
         id="polygon1867"
         points="73,203.563 88,203.563 88,190 73,190 " /></clipPath><clipPath
       id="cp10"><polygon
         id="polygon1874"
         points="74,364 434,364 434,13 74,13 " /></clipPath><clipPath
       id="cp11"><polygon
         id="polygon1889"
         points="73,203.563 88,203.563 88,190 73,190 " /></clipPath><clipPath
       id="cp13"><polygon
         id="polygon1907"
         points="74,204 95,204 95,190 74,190 " /></clipPath><clipPath
       id="cp15"><polygon
         id="polygon1931"
         points="74,204 95,204 95,190 74,190 " /></clipPath><clipPath
       id="cp17"><polygon
         id="polygon1955"
         points="73,204 88,204 88,190 73,190 " /></clipPath><clipPath
       id="cp19"><polygon
         id="polygon1977"
         points="73,204 88,204 88,190 73,190 " /></clipPath><clipPath
       id="cp21"><polygon
         id="polygon1999"
         points="73,204 88,204 88,190 73,190 " /></clipPath><linearGradient
       inkscape:collect="always"
       xlink:href="#linearGradient44"
       id="linearGradient49"
       gradientUnits="userSpaceOnUse"
       gradientTransform="matrix(1.4142136,0,0,0.70710678,-589.85962,-903.87278)"
       x1="338.69067"
       y1="1124.8484"
       x2="338.69067"
       y2="1283.5221" /></defs><g
     inkscape:label="Layer 1"
     inkscape:groupmode="layer"
     id="layer1"
     transform="translate(-5.0000006,-4.9999994)"><g
       inkscape:label="Plot"
       style="display:inline"
       id="layer3"
       transform="matrix(0.26458333,0,0,0.26458333,5.3494107,5.982766)"><text
         xml:space="preserve"
         transform="translate(-20.218245,-22.612029)"
         id="text114"
         style="font-size:24px;font-family:Arial;-inkscape-font-specification:Arial;text-align:center;white-space:pre;shape-inside:url(#rect114);display:inline;fill:#323232;fill-opacity:0.55;stroke:none;stroke-width:7.46667;stroke-linecap:round;stroke-linejoin:round;stroke-dasharray:none;stroke-dashoffset:0;stroke-opacity:1" /><g
         id="g49"
         transform="translate(12.800762,12.800791)"><path
           style="display:inline;fill:#222222;fill-opacity:1;stroke:none;stroke-width:12.3002;stroke-linecap:round;stroke-linejoin:round;stroke-dasharray:none;stroke-dashoffset:0;stroke-opacity:1"
           id="path167-1"
           sodipodi:type="arc"
           sodipodi:cx="110.87866"
           sodipodi:cy="108.48482"
           sodipodi:rx="112.19921"
           sodipodi:ry="112.19921"
           sodipodi:start="0"
           sodipodi:end="3.1415927"
           sodipodi:arc-type="slice"
           d="m 223.07787,108.48482 a 112.19921,112.19921 0 0 1 -56.0996,97.16737 112.19921,112.19921 0 0 1 -112.199216,-1e-5 112.19921,112.19921 0 0 1 -56.099603,-97.16736 H 110.87866 Z" /><path
           style="display:inline;fill:url(#linearGradient49);fill-opacity:1;stroke:none;stroke-width:12.3002;stroke-linecap:round;stroke-linejoin:round;stroke-dasharray:none;stroke-dashoffset:0;stroke-opacity:1"
           id="path167-1-4"
           sodipodi:type="arc"
           sodipodi:cx="-110.87866"
           sodipodi:cy="-108.48482"
           sodipodi:rx="112.19921"
           sodipodi:ry="112.19921"
           sodipodi:start="0"
           sodipodi:end="3.1415927"
           sodipodi:arc-type="slice"
           d="m 1.320549,-108.48482 a 112.19921,112.19921 0 0 1 -56.099607,97.16737 112.19921,112.19921 0 0 1 -112.199212,-2e-6 112.19921,112.19921 0 0 1 -56.0996,-97.167368 h 112.19921 z"
           transform="scale(-1)" /><g
           id="g167"
           transform="matrix(1.0908596,0,0,1.0908596,-306.42953,-788.12975)"><path
             id="path106-1"
             style="display:inline;fill:none;fill-rule:evenodd;stroke:#222222;stroke-width:3.11825;stroke-linecap:butt;stroke-linejoin:round;stroke-miterlimit:4;stroke-dasharray:none;stroke-opacity:1"
             d="m 485.31791,821.95972 -62.97839,0.0519 c -14.93539,-0.003 -21.34136,-0.68878 -24.58433,-1.59261 -15.28577,-4.26009 -19.00805,-15.09207 -26.80717,-30.54544 -9.82557,-19.46855 -14.62835,-38.52613 -22.94977,-38.52613 -8.32142,0 -13.12421,19.05758 -22.94976,38.52613 -7.79914,15.45337 -11.52144,26.28522 -26.80718,30.54557 -0.76752,0.21392 -1.37395,0.41731 -2.05054,0.6032 -2.18221,0.59957 -3.93003,1.34984 -15.33064,1.35194"
             sodipodi:nodetypes="cccsssssc" /><path
             style="opacity:1;fill:url(#pattern35);fill-opacity:1;stroke:none;stroke-width:0.72008;stroke-linecap:round;stroke-linejoin:round;stroke-dasharray:none;stroke-dashoffset:0;stroke-opacity:1"
             d="m 302.43919,820.26891 c 0.13261,-0.0635 0.74302,-0.3383 1.35649,-0.61059 5.44214,-2.41556 9.86972,-6.49692 13.72493,-12.65171 1.39835,-2.23243 2.68017,-4.62008 5.50175,-10.24816 5.14025,-10.25302 6.36126,-12.85601 10.51774,-22.42218 3.88032,-8.93061 5.49744,-12.36502 7.15869,-15.20353 4.83614,-8.26327 8.89198,-8.74852 13.58371,-1.62517 2.07527,3.15084 3.58806,6.27304 8.3642,17.26267 3.26543,7.51358 4.6505,10.54747 6.86831,15.04457 l 1.16523,2.36276 -1.01201,0.67508 c -1.41423,0.94338 -3.57846,2.5605 -7.3281,5.47558 -3.93578,3.05979 -6.36393,4.87153 -8.64334,6.44907 -2.52728,1.74912 -7.84221,5.35473 -9.01709,6.11714 -7.0436,4.57074 -13.14247,6.7582 -22.80795,8.18043 -4.41949,0.65033 -8.90852,1.00692 -14.6588,1.16444 -1.06084,0.0292 -2.62316,0.0736 -3.47183,0.099 -1.24351,0.0372 -1.49623,0.0238 -1.30193,-0.0694 z"
             id="path115" /><path
             style="opacity:1;fill:url(#pattern36);fill-opacity:1;stroke:none;stroke-width:0.72008;stroke-linecap:round;stroke-linejoin:round;stroke-dasharray:none;stroke-dashoffset:0;stroke-opacity:1"
             d="m 414.93589,820.51378 c -5.98721,-0.11124 -11.50526,-0.49142 -14.53313,-1.00134 -3.59792,-0.6059 -7.5822,-2.17209 -10.63759,-4.18156 -4.69022,-3.08468 -7.90173,-7.09624 -12.1357,-15.159 -1.19532,-2.27623 -3.43928,-6.7941 -3.43928,-6.92445 0,-0.0362 0.64961,-0.384 1.44358,-0.77282 5.8969,-2.88781 11.99621,-2.91068 17.89254,-0.0671 3.0728,1.48191 5.32546,3.02246 11.86206,8.11223 5.82063,4.53228 6.79691,5.23237 15.67143,11.2382 6.76881,4.58077 11.18332,6.66189 17.69664,8.34259 l 1.83236,0.47283 -12.1996,-0.0181 c -6.70978,-0.0101 -12.76377,-0.0285 -13.45331,-0.0414 z"
             id="path116" /></g><path
           style="font-size:51.2689px;font-family:Urbanist;-inkscape-font-specification:Urbanist;text-align:center;text-anchor:middle;fill:#ffffff;stroke-width:7.17766;stroke-linecap:round;stroke-linejoin:round"
           d="M 45.865985,166.28903 V 130.4008 h 12.176364 q 2.871059,0 5.178159,1.4099 2.307101,1.38426 3.665727,3.76826 1.358626,2.35837 1.358626,5.30633 0,2.64035 -1.076647,4.79364 -1.076647,2.1533 -2.947962,3.56319 -1.845681,1.4099 -4.178416,1.87132 l 8.766983,15.17559 h -4.152781 l -8.63881,-14.89361 h -6.56242 v 14.89361 z m 3.588823,-18.48244 h 8.279928 q 1.896949,0 3.460651,-0.92284 1.589336,-0.94847 2.512176,-2.53781 0.948475,-1.61497 0.948475,-3.64009 0,-2.02512 -0.948475,-3.61446 -0.92284,-1.61497 -2.512176,-2.53781 -1.563702,-0.94847 -3.460651,-0.94847 h -8.279928 z m 35.32435,19.14894 q -3.537555,0 -6.459882,-1.82005 -2.896693,-1.82004 -4.639836,-4.87054 -1.717508,-3.07614 -1.717508,-6.79313 0,-2.81979 0.999744,-5.25507 0.999743,-2.4609 2.742886,-4.30658 1.768777,-1.87132 4.101512,-2.92233 2.332735,-1.05101 4.973084,-1.05101 2.845424,0 5.229428,1.12791 2.409638,1.12792 4.127146,3.15304 1.743143,2.02512 2.614714,4.74237 0.897206,2.71725 0.743399,5.87029 H 75.755831 q 0.307613,2.43528 1.538067,4.35786 1.256088,1.92258 3.178672,3.0505 1.948218,1.10228 4.306588,1.12791 2.563445,0 4.614201,-1.33299 2.07639,-1.33299 3.332478,-3.66572 l 3.640092,0.84593 q -1.538067,3.40939 -4.639835,5.58831 -3.101769,2.1533 -6.946936,2.1533 z m -9.125865,-15.02179 h 18.226095 q -0.179442,-2.384 -1.461164,-4.35786 -1.256088,-1.99948 -3.255575,-3.17867 -1.999488,-1.20482 -4.383491,-1.20482 -2.384004,0 -4.357857,1.17919 -1.973853,1.15355 -3.229941,3.15303 -1.256088,1.97386 -1.538067,4.40913 z m 29.812927,27.17252 h -3.58883 v -38.45168 h 3.58883 v 4.79364 q 1.33299,-2.43527 3.64009,-3.9477 2.3071,-1.51243 5.48577,-1.51243 2.79416,0 5.22943,1.05101 2.46091,1.05101 4.30659,2.92233 1.84568,1.84568 2.89669,4.28095 1.05101,2.43527 1.05101,5.22943 0,2.79415 -1.05101,5.25506 -1.05101,2.46091 -2.89669,4.33222 -1.84568,1.84568 -4.30659,2.89669 -2.43527,1.05102 -5.22943,1.05102 -3.17867,0 -5.48577,-1.51244 -2.3071,-1.51243 -3.64009,-3.9477 z m 9.10023,-35.63189 q -2.69162,0 -4.69111,1.35863 -1.97385,1.33299 -3.0505,3.58882 -1.07664,2.25583 -1.07664,5.04999 0,2.74288 1.05101,5.02435 1.07665,2.28147 3.0505,3.64009 1.99949,1.35863 4.71674,1.35863 2.66598,0 4.89618,-1.33299 2.25583,-1.333 3.61446,-3.58883 1.35862,-2.28146 1.35862,-5.10125 0,-2.74289 -1.33299,-4.99872 -1.33299,-2.28147 -3.56319,-3.64009 -2.2302,-1.35863 -4.97308,-1.35863 z m 17.86725,22.81466 v -25.63445 h 3.58882 v 3.53756 q 1.35862,-1.94822 3.53755,-3.10177 2.17893,-1.15355 4.74238,-1.15355 1.48679,0 2.87106,0.38451 l -1.46117,3.56319 q -1.07665,-0.33325 -2.10202,-0.33325 -2.07639,0 -3.81954,1.02538 -1.7175,1.02538 -2.74288,2.74289 -1.02538,1.71751 -1.02538,3.81953 v 15.14996 z m 17.99537,-25.63445 h 3.58883 v 25.63445 h -3.58883 z m 1.82005,-4.48603 q -0.87157,0 -1.4868,-0.56396 -0.58959,-0.58959 -0.58959,-1.46116 0,-0.87157 0.58959,-1.43553 0.61523,-0.58959 1.4868,-0.58959 0.84594,0 1.43553,0.58959 0.61522,0.56396 0.61522,1.43553 0,0.87157 -0.58959,1.46116 -0.58959,0.56396 -1.46116,0.56396 z m 15.66267,30.60754 q -2.10202,-0.0513 -4.10151,-0.76904 -1.99949,-0.71776 -3.48628,-1.94822 -1.4868,-1.23045 -2.12766,-2.79415 l 3.10177,-1.33299 q 0.41015,0.99974 1.51243,1.84568 1.12791,0.8203 2.56344,1.33299 1.43553,0.48705 2.84543,0.48705 1.5637,0 2.92232,-0.51268 1.35863,-0.51269 2.20457,-1.46117 0.87157,-0.97411 0.87157,-2.28146 0,-1.4099 -0.92284,-2.20457 -0.92284,-0.8203 -2.33274,-1.28172 -1.40989,-0.48705 -2.89669,-0.92284 -2.71725,-0.7434 -4.79364,-1.6406 -2.07639,-0.89721 -3.25558,-2.28147 -1.15355,-1.4099 -1.15355,-3.61446 0,-2.33273 1.30736,-4.02461 1.33299,-1.71751 3.46065,-2.64035 2.15329,-0.94847 4.58857,-0.94847 3.1274,0 5.69085,1.35863 2.58907,1.35862 3.74263,3.61445 l -2.8967,1.71751 q -0.46142,-1.05101 -1.46116,-1.82004 -0.99975,-0.76904 -2.28147,-1.20482 -1.25609,-0.43579 -2.56344,-0.46142 -1.64061,-0.0256 -3.0505,0.48705 -1.4099,0.48706 -2.28147,1.46116 -0.84594,0.97411 -0.84594,2.38401 0,1.40989 0.84594,2.15329 0.84594,0.71777 2.28147,1.17919 1.46116,0.43578 3.28121,1.02537 2.33273,0.7434 4.38349,1.69188 2.05075,0.94847 3.30684,2.35837 1.25609,1.40989 1.23046,3.56319 0,2.3071 -1.38426,4.02461 -1.38426,1.7175 -3.58883,2.64034 -2.20456,0.89721 -4.71674,0.82031 z"
           id="text169"
           aria-label="Repris" /><path
           style="display:inline;fill:#222222;fill-opacity:1;stroke:none;stroke-width:0.0367474;stroke-linecap:butt;stroke-linejoin:round;stroke-dasharray:none;stroke-opacity:1"
           d="m 32.007635,109.60231 c 0,-0.31654 1.62856,-0.0959 2.91682,-0.17152 8.16667,-0.47975 16.30377,-1.87354 22.18548,-3.80013 5.35879,-1.75531 9.38578,-3.85856 15.9099,-8.309562 1.19103,-0.81257 3.33887,-2.27458 4.77297,-3.24893 4.26272,-2.89611 6.44935,-4.50085 11.9089,-8.73978 1.64149,-1.27449 3.74592,-2.88457 4.67651,-3.57796 1.59803,-1.1907 4.20899,-2.99085 4.73547,-3.26489 l 0.24025,-0.12506 2.297555,4.57491 c 3.93626,7.8379 6.45398,10.95789 9.22717,14.36076 0.98666,1.2107 3.68545,3.978072 4.77116,4.839252 2.44345,1.93813 5.26444,3.23943 8.29541,4.43815 3.61254,1.42872 7.44002,3.17724 12.81387,3.6459 -34.91469,0.0648 -104.751465,35.05288 -104.751465,0.1366 z"
           id="path47"
           sodipodi:nodetypes="scsssssscsssssss" /></g></g><path
       id="path104-0"
       style="display:inline;fill:none;fill-rule:evenodd;stroke:#ffffff;stroke-width:0.8;stroke-linecap:butt;stroke-linejoin:round;stroke-miterlimit:4;stroke-dasharray:none;stroke-opacity:1"
       d="m 47.809852,33.731041 c -3.910101,-2.616437 -5.821379,-5.177642 -9.132901,-5.177642 -3.311522,0 -5.222799,2.561205 -9.132897,5.177642 -3.103676,2.076823 -4.584954,3.532581 -10.667958,4.105114 -1.246327,0.117306 -4.324887,0.221914 -9.8876557,0.22928 -0.1973866,2.6e-4 -0.3979018,2.88e-4 -0.6015717,2.88e-4"
       sodipodi:nodetypes="cssssc" /></g></svg>
