<?xml version="1.0" encoding="UTF-8" standalone="no"?>
<!-- Created with Inkscape (http://www.inkscape.org/) -->

<svg
   width="150mm"
   height="70mm"
   viewBox="0 0 150 70"
   version="1.1"
   id="svg1"
   xml:space="preserve"
   sodipodi:docname="distributions.svg"
   inkscape:version="1.3 (0e150ed6c4, 2023-07-21)"
   xmlns:inkscape="http://www.inkscape.org/namespaces/inkscape"
   xmlns:sodipodi="http://sodipodi.sourceforge.net/DTD/sodipodi-0.dtd"
   xmlns:xlink="http://www.w3.org/1999/xlink"
   xmlns="http://www.w3.org/2000/svg"
   xmlns:svg="http://www.w3.org/2000/svg"><sodipodi:namedview
     id="namedview1"
     pagecolor="#ffffff"
     bordercolor="#000000"
     borderopacity="0.25"
     inkscape:showpageshadow="2"
     inkscape:pageopacity="0.0"
     inkscape:pagecheckerboard="0"
     inkscape:deskcolor="#d1d1d1"
     inkscape:document-units="mm"
     showgrid="false"
     inkscape:zoom="2"
     inkscape:cx="297"
     inkscape:cy="80.25"
     inkscape:window-width="2496"
     inkscape:window-height="1601"
     inkscape:window-x="-8"
     inkscape:window-y="-8"
     inkscape:window-maximized="1"
     inkscape:current-layer="layer1" /><defs
     id="defs1"><linearGradient
       id="swatch163"
       inkscape:swatch="solid"><stop
         style="stop-color:#0d73c6;stop-opacity:1;"
         offset="0"
         id="stop163" /></linearGradient><inkscape:perspective
       sodipodi:type="inkscape:persp3d"
       inkscape:vp_x="0 : 2.9999934 : 1"
       inkscape:vp_y="0 : 999.99998 : 0"
       inkscape:vp_z="720.00001 : 2.9999934 : 1"
       inkscape:persp3d-origin="360.00001 : -73.666676 : 1"
       id="perspective289" /><clipPath
       id="cp3"><polygon
         id="polygon1797"
         points="73,190 73,203.563 95,203.563 95,190 " /></clipPath><clipPath
       id="cp5"><polygon
         id="polygon1821"
         points="73,190 73,203.563 95,203.563 95,190 " /></clipPath><clipPath
       id="cp7"><polygon
         id="polygon1845"
         points="73,190 73,203.563 88,203.563 88,190 " /></clipPath><clipPath
       id="cp9"><polygon
         id="polygon1867"
         points="73,190 73,203.563 88,203.563 88,190 " /></clipPath><clipPath
       id="cp10"><polygon
         id="polygon1874"
         points="74,13 74,364 434,364 434,13 " /></clipPath><clipPath
       id="cp11"><polygon
         id="polygon1889"
         points="73,190 73,203.563 88,203.563 88,190 " /></clipPath><clipPath
       id="cp13"><polygon
         id="polygon1907"
         points="74,190 74,204 95,204 95,190 " /></clipPath><clipPath
       id="cp15"><polygon
         id="polygon1931"
         points="74,190 74,204 95,204 95,190 " /></clipPath><clipPath
       id="cp17"><polygon
         id="polygon1955"
         points="73,190 73,204 88,204 88,190 " /></clipPath><clipPath
       id="cp19"><polygon
         id="polygon1977"
         points="73,190 73,204 88,204 88,190 " /></clipPath><clipPath
       id="cp21"><polygon
         id="polygon1999"
         points="73,190 73,204 88,204 88,190 " /></clipPath><style
       type="text/css"
       id="style1">&#10;*{stroke-linecap:butt;stroke-linejoin:round;}&#10;  </style><path
       d="m 26.3619,-226.384 h -0.0104 v 0.427 0.427 0.428 0.427 0.428 0.427 0.427 0.428 0.427 0.428 0.427 0.427 0.428 0.427 0.427 0.428 0.427 0.428 0.427 0.427 0.428 0.427 0.428 0.427 0.427 0.428 0.427 0.427 0.428 0.427 0.428 0.427 0.427 0.428 0.427 0.428 0.427 0.427 0.428 0.427 0.428 0.427 0.427 0.428 0.427 0.427 0.428 0.427 0.428 0.427 0.427 0.428 0.427 0.428 0.427 0.427 0.428 0.427 0.427 0.428 0.427 0.428 0.427 0.427 0.428 0.427 0.428 0.427 0.427 0.428 0.427 0.428 0.427 0.427 0.428 0.427 0.427 0.428 0.427 0.428 0.427 0.427 0.428 0.427 0.428 0.427 0.427 0.428 0.427 0.427 0.428 0.427 0.428 0.427 0.427 0.428 0.427 0.428 0.427 0.427 0.428 0.427 0.427 0.428 0.427 0.428 0.427 0.427 0.428 0.427 0.428 0.427 0.427 0.428 0.427 0.428 0.427 0.427 0.428 0.427 0.427 0.428 0.427 0.428 0.427 0.427 0.428 0.427 0.428 0.427 0.427 0.428 0.427 0.427 0.428 0.427 0.428 0.427 0.427 0.428 0.427 0.428 0.427 0.427 0.428 0.427 0.428 0.427 0.427 0.428 0.427 0.427 0.428 0.427 0.428 0.427 0.427 0.428 0.427 0.428 0.427 0.427 0.428 0.427 0.427 0.428 0.427 0.428 0.427 0.427 0.428 0.427 0.428 0.427 0.427 0.428 0.427 0.428 0.427 0.427 0.428 0.427 0.427 0.428 0.427 0.428 0.427 0.427 0.428 0.427 0.428 0.427 0.427 0.428 0.427 0.427 0.428 0.427 0.428 h 68.2629 v 0 l -1.3351,-0.428 -1.3252,-0.427 -1.3149,-0.428 -1.304,-0.427 -1.2927,-0.427 -1.2812,-0.428 -1.2691,-0.427 -1.2567,-0.427 -1.244,-0.428 -1.231,-0.427 -1.2175,-0.428 -1.2039,-0.427 -1.1898,-0.427 -1.1757,-0.428 -1.1612,-0.427 -1.1464,-0.428 -1.1315,-0.427 -1.1164,-0.427 -1.101,-0.428 -1.0856,-0.427 -1.0699,-0.427 -1.0541,-0.428 -1.0382,-0.427 -1.0222,-0.428 -1.0061,-0.427 -0.9898,-0.427 -0.9736,-0.428 -0.9573,-0.427 -0.9409,-0.428 -0.9245,-0.427 -0.9081,-0.427 -0.8918,-0.428 -0.8753,-0.427 -0.8589,-0.428 -0.8426,-0.427 -0.8263,-0.427 -0.81,-0.428 -0.7939,-0.427 -0.7778,-0.427 -0.7617,-0.428 -0.7458,-0.427 -0.73,-0.428 -0.7143,-0.427 -0.6987,-0.427 -0.6832,-0.428 -0.6679,-0.427 -0.6527,-0.428 -0.6376,-0.427 -0.6227,-0.427 -0.6081,-0.428 -0.5934,-0.427 -0.5791,-0.427 -0.5648,-0.428 -0.5509,-0.427 -0.5369,-0.428 -0.5234,-0.427 -0.5098,-0.427 -0.4966,-0.428 -0.4835,-0.427 -0.4707,-0.428 -0.458,-0.427 -0.4455,-0.427 -0.4333,-0.428 -0.4213,-0.427 -0.4095,-0.428 -0.3978,-0.427 -0.3865,-0.427 -0.3753,-0.428 -0.3644,-0.427 -0.3536,-0.427 -0.3431,-0.428 -0.3328,-0.427 -0.3227,-0.428 -0.3128,-0.427 -0.3032,-0.427 -0.2937,-0.428 -0.2845,-0.427 -0.2754,-0.428 -0.2667,-0.427 -0.258,-0.427 -0.2497,-0.428 -0.2414,-0.427 -0.2335,-0.427 -0.2256,-0.428 -0.2181,-0.427 -0.2107,-0.428 -0.2034,-0.427 -0.1965,-0.427 -0.1896,-0.428 -0.183,-0.427 -0.1765,-0.428 -0.1703,-0.427 -0.1641,-0.427 -0.1583,-0.428 -0.1524,-0.427 -0.1469,-0.428 -0.1415,-0.427 -0.1362,-0.427 -0.1311,-0.428 -0.1262,-0.427 -0.1213,-0.427 -0.1168,-0.428 -0.1122,-0.427 -0.1079,-0.428 -0.1036,-0.427 -0.0996,-0.427 -0.0957,-0.428 -0.0918,-0.427 -0.0882,-0.428 -0.0846,-0.427 -0.0811,-0.427 -0.0779,-0.428 -0.0746,-0.427 -0.0715,-0.427 -0.0686,-0.428 -0.0657,-0.427 -0.0629,-0.428 -0.0602,-0.427 -0.0577,-0.427 -0.0552,-0.428 -0.0528,-0.427 -0.0505,-0.428 -0.0483,-0.427 -0.0462,-0.427 -0.0441,-0.428 -0.0422,-0.427 -0.0402,-0.427 -0.0385,-0.428 -0.0367,-0.427 -0.035,-0.428 -0.0335,-0.427 -0.0319,-0.427 -0.0304,-0.428 -0.029,-0.427 -0.0276,-0.428 -0.0264,-0.427 -0.0251,-0.427 -0.0238,-0.428 -0.0228,-0.427 -0.0217,-0.428 -0.0206,-0.427 -0.0196,-0.427 -0.0186,-0.428 -0.0177,-0.427 -0.0169,-0.427 -0.016,-0.428 -0.0152,-0.427 -0.0145,-0.428 -0.0137,-0.427 -0.013,-0.427 -0.0124,-0.428 -0.0117,-0.427 -0.0112,-0.428 -0.0105,-0.427 -0.01,-0.427 -0.0095,-0.428 -0.009,-0.427 -0.0085,-0.427 -0.0081,-0.428 -0.0076,-0.427 -0.0072,-0.428 -0.0069,-0.427 -0.0065,-0.427 -0.0061,-0.428 -0.0058,-0.427 -0.0054,-0.428 -0.0052,-0.427 -0.0049,-0.427 -0.0046,-0.428 -0.0044,-0.427 -0.0041,-0.428 -0.0038,-0.427 -0.0037,-0.427 -0.0035,-0.428 -0.0032,-0.427 -0.0031,-0.427 -0.0029,-0.428 -0.0027,-0.427 -0.0026,-0.428 -0.0024,-0.427 -0.0023,-0.427 -0.0021,-0.428 -0.0021,-0.427 -0.0019,-0.428 -0.0018,-0.427 -0.0016,-0.427 -0.0016,-0.428 -0.0015,-0.427 -0.0014,-0.427 -0.0013,-0.428 -0.0012,-0.427 -0.0012,-0.428 -0.0011,-0.427 -0.001,-0.427 -10e-4,-0.428 -9e-4,-0.427 -8e-4,-0.428 -8e-4,-0.427 z"
       id="m149c3c1ad6"
       style="stroke:#4682b4;stroke-opacity:0.2" /><path
       d="M 0,0 V -4"
       id="mc7db9fdffb"
       style="stroke:#000000;stroke-width:0.5" /><path
       d="M 0,0 V 4"
       id="m5a7d422ac3"
       style="stroke:#000000;stroke-width:0.5" /><path
       d="M 42,31.6406 C 42,37.75 41.9062,48.125 37.7031,56.1094 34,63.1094 28.0938,65.5938 22.9062,65.5938 18.0938,65.5938 12,63.4062 8.20312,56.2031 4.20312,48.7188 3.79688,39.4375 3.79688,31.6406 3.79688,25.9531 3.90625,17.2812 7,9.67188 11.2969,-0.609375 19,-2 22.9062,-2 27.5,-2 34.5,-0.109375 38.5938,9.375 41.5938,16.2812 42,24.3594 42,31.6406 M 22.9062,-0.40625 c -6.4062,0 -10.2031,5.48437 -11.6093,13.09375 -1.0938,5.875 -1.0938,14.4687 -1.0938,20.0625 0,7.6875 0,14.0781 1.2969,20.1719 C 13.4062,61.3906 19,64 22.9062,64 27,64 32.2969,61.2969 34.2031,53.125 35.5,47.4375 35.5938,40.7344 35.5938,32.75 c 0,-6.5 0,-14.4844 -1.1876,-20.375 -2.1093,-10.89062 -8,-12.78125 -11.5,-12.78125"
       id="CMR17-48" /><path
       d="m 18.4062,4.79688 c 0,2.89062 -2.4062,4.875 -4.8124,4.875 -2.8907,0 -4.89068,-2.39063 -4.89068,-4.78126 C 8.70312,2 11.0938,0 13.5,0 c 2.9062,0 4.9062,2.39062 4.9062,4.79688"
       id="CMMI12-58" /><path
       d="m 26.5938,63.4062 c 0,2.0938 -0.0938,2.0938 -1.5,2.0938 -3.8907,-4.3125 -9.7969,-5.7031 -15.39068,-5.7031 -0.29687,0 -0.79687,0 -0.90624,-0.2969 C 8.70312,59.2969 8.70312,59.0938 8.70312,57 11.7969,57 17,57.5938 21,59.9844 V 7.20312 C 21,3.6875 20.7969,2.5 12.2031,2.5 H 9.20312 V 0 C 14,0 19,0 23.7969,0 c 4.7969,0 9.7969,0 14.6093,0 v 2.5 h -3 c -8.6093,0 -8.8124,1.09375 -8.8124,4.65625 z"
       id="CMR17-49" /><path
       d="M 41.7031,15.4531 H 39.9062 C 38.9062,8.375 38.0938,7.17188 37.7031,6.5625 37.2031,5.76562 30,5.76562 28.5938,5.76562 H 9.40625 C 13,9.67188 20,16.75 28.5,24.9531 34.5938,30.7344 41.7031,37.5312 41.7031,47.4219 41.7031,59.2188 32.2969,66 21.7969,66 c -11,0 -17.70315,-9.6875 -17.70315,-18.6562 0,-3.9063 2.90625,-4.4063 4.10937,-4.4063 1,0 3.99998,0.6094 3.99998,4.0937 C 12.2031,50.1094 9.59375,51 8.20312,51 7.59375,51 7,50.9062 6.59375,50.7031 8.5,59.2188 14.2969,63.4062 20.4062,63.4062 c 8.6876,0 14.3907,-6.8906 14.3907,-15.9843 C 34.7969,38.7344 29.7031,31.25 24,24.75 L 4.09375,2.28125 V 0 H 39.2969 Z"
       id="CMR17-50" /><path
       d="M 22.0938,33.7031 C 31,33.7031 34.9062,25.9688 34.9062,17.0312 34.9062,5 28.5,0.390625 22.7031,0.390625 c -5.2969,0 -13.90622,2.640625 -16.60935,10.437475 0.5,-0.2031 1,-0.2031 1.5,-0.2031 2.40625,0 4.20315,1.5938 4.20315,4.1875 C 11.7969,17.7031 9.59375,19 7.59375,19 5.90625,19 3.29688,18.2031 3.29688,14.4688 3.29688,5.23438 12.2969,-2 22.9062,-2 34,-2 42.5,6.71875 42.5,16.9531 c 0,9.7188 -8,16.7344 -17.5,17.8438 7.5938,1.5781 14.9062,8.2656 14.9062,17.2187 C 39.9062,59.6875 32,65.2969 23,65.2969 13.9062,65.2969 5.90625,59.8281 5.90625,52.0156 5.90625,48.5938 8.5,48 9.79688,48 c 2.10932,0 3.90622,1.2969 3.90622,3.8906 0,2.5782 -1.7969,3.875 -3.90622,3.875 -0.39063,0 -0.89063,0 -1.29688,-0.1875 C 11.4062,61.8594 19.2969,63 22.7969,63 c 3.5,0 10.1093,-1.6719 10.1093,-11.125 0,-2.7656 -0.4062,-7.6875 -3.8124,-12.0312 C 26.0938,36 22.7031,36 19.4062,35.6875 c -0.5,0 -2.8124,-0.2344 -3.2031,-0.2344 C 15.5,35.3594 15.0938,35.2656 15.0938,34.5 c 0,-0.7031 0.1093,-0.7969 2.1093,-0.7969 z"
       id="CMR17-51" /><path
       d="M 33.5938,64.4062 C 33.5938,66.5 33.5,66.5 31.7031,66.5 L 2,19.5938 V 17 H 27.7969 V 7.14062 C 27.7969,3.5 27.5938,2.5 20.5938,2.5 H 18.7031 V 0 c 3.2031,0 8.5938,0 12,0 3.3907,0 8.7969,0 12,0 v 2.5 h -1.9062 c -7,0 -7.2031,1 -7.2031,4.64062 V 17 h 10.2031 v 2.5938 H 33.5938 Z m -5.5,-6.5468 V 19.5938 H 4 Z"
       id="CMR17-52" /><path
       d="M 11.4062,57.6875 C 12.4062,57.2812 16.5,56 20.7031,56 30,56 35.0938,61.1094 38,64.0625 38,64.9531 38,65.5 37.4062,65.5 c -0.1093,0 -0.3124,0 -1.1093,-0.4531 -3.5,-1.6407 -7.5938,-2.9688 -12.5938,-2.9688 -3,0 -7.5,0.4063 -12.4062,2.5938 -1.0938,0.5 -1.2969,0.5 -1.39065,0.5 -0.5,0 -0.60937,-0.1094 -0.60937,-2.0938 V 34.4219 c 0,-1.7813 0,-2.2813 1.00002,-2.2813 0.5,0 0.7031,0.2032 1.2031,0.8906 3.2031,4.4844 7.5938,6.375 12.5938,6.375 3.5,0 11,-2.1874 11,-19.2656 0,-3.1875 0,-8.9687 -3,-13.56248 C 29.5938,2.48438 25.7031,0.390625 21.4062,0.390625 14.7969,0.390625 8.09375,5 6.29688,12.7188 6.70312,12.6094 7.5,12.4219 7.90625,12.4219 c 1.29687,0 3.79685,0.7031 3.79685,3.7969 C 11.7031,18.9062 9.79688,20 7.90625,20 5.59375,20 4.09375,18.5938 4.09375,15.7969 4.09375,7.09375 11,-2 21.5938,-2 c 10.3124,0 20.1093,8.875 20.1093,21.75 0,11.9688 -7.7969,21.25 -17.5,21.25 -5.1093,0 -9.4062,-1.8906 -12.7969,-5.4688 z"
       id="CMR17-53" /><path
       d="m 10.5938,34 c 0,23.6562 11.2031,29 17.7031,29 2.1093,0 7.2031,-0.3594 9.2031,-4 -1.5938,0 -4.5938,0 -4.5938,-3.4844 0,-2.6875 2.1876,-3.5937 3.5938,-3.5937 0.9062,0 3.5938,0.3906 3.5938,3.7031 0,6.1562 -5,9.6719 -11.8907,9.6719 C 16.2969,65.2969 3.79688,52.9688 3.79688,31 3.79688,3.95312 15.0938,-2 23.0938,-2 32.7969,-2 42,6.67188 42,20.0469 c 0,12.4687 -8.0938,21.5469 -18.2969,21.5469 -6.1093,0 -10.6093,-3.9844 -13.1093,-10.9688 z m 12.5,-33.609375 C 10.7969,0.390625 10.7969,18.75 10.7969,22.4375 10.7969,29.625 14.2031,40 23.5,40 c 1.7031,0 6.5938,0 9.9062,-6.875 1.7969,-3.9062 1.7969,-7.9844 1.7969,-12.9844 0,-5.3906 0,-9.3594 -2.1093,-13.35935 -2.1876,-4.10937 -5.3907,-6.390625 -10,-6.390625"
       id="CMR17-54" /><path
       d="M 0,0 H 4"
       id="md7965d1ba0"
       style="stroke:#000000;stroke-width:0.5" /><path
       d="M 0,0 H -4"
       id="md9a1c1a7cd"
       style="stroke:#000000;stroke-width:0.5" /><path
       d="m 65.9062,23 c 1.6876,0 3.5,0 3.5,2 0,2 -1.8124,2 -3.5,2 H 11.7969 c -1.7031,0 -3.50002,0 -3.50002,-2 0,-2 1.79692,-2 3.50002,-2 z"
       id="CMSY10-0" /><path
       d="M 14.4062,2.1875 C 16.9062,-0.09375 20.5938,-1 24,-1 c 6.4062,0 10.7969,4.25 13.0938,7.32812 1,-5.25 5.2031,-7.32812 8.7031,-7.32812 3,0 5.4062,1.78125 7.2031,5.32812 1.5938,3.375 3,9.40628 3,9.78128 C 56,14.6094 55.5938,15 55,15 54.0938,15 54,14.5 53.5938,13.0312 52.0938,7.20312 50.2031,1 46.0938,1 43.2031,1 43,3.57812 43,5.59375 43,7.875 43.9062,11.4688 44.5938,14.4688 l 2.8124,10.7656 c 0.3907,1.9062 1.5,6.375 2,8.1875 0.5938,2.3906 1.6876,6.6875 1.6876,7.0781 0,1.5 -1.1876,2.5 -2.6876,2.5 -0.9062,0 -3,-0.4062 -3.8124,-3.3906 l -7,-27.7344 c -0.5,-2 -0.5,-2.20312 -1.7969,-3.79688 C 34.5938,6.39062 30.7031,1 24.4062,1 18.7969,1 17,5.09375 17,9.76562 c 0,2.90628 0.9062,6.39058 1.2969,8.09378 l 4.5,17.9687 c 0.5,1.8907 1.2969,5.0781 1.2969,5.6875 C 24.0938,43.1094 22.7969,44 21.5,44 20.5938,44 18.4062,43.7031 17.5938,40.5 L 3.09375,-17.2969 C 3,-17.7969 2.79688,-18.3906 2.79688,-19 2.79688,-20.5 4,-21.5 5.5,-21.5 c 2.90625,0 3.5,2.3125 4.20312,5.0938 z"
       id="CMMI12-22" /><path
       d="M 26.2969,-10.9375 C 23.5938,-14.6719 19.7031,-18 14.7969,-18 c -1.2031,0 -6.00002,0 -7.50002,4.1094 0.29687,-0.0938 0.79687,-0.0938 1,-0.0938 3.00002,0 5.00002,2.5938 5.00002,4.89065 C 13.2969,-6.79688 11.4062,-6 9.90625,-6 8.29688,-6 4.79688,-7.15625 4.79688,-11.8594 c 0,-4.875 4.29687,-8.2344 10.00002,-8.2344 10,0 20.1093,9.1563 22.9062,20.18755 L 47.5,38.8281 c 0.0938,0.5 0.2969,1.1094 0.2969,1.7031 0,1.4844 -1.2031,2.4844 -2.7031,2.4844 -0.8907,0 -3,-0.4062 -3.7969,-3.4062 L 33.9062,10.2812 c -0.5,-1.79682 -0.5,-1.99995 -1.3124,-3.0937 C 30.5938,4.39062 27.2969,1 22.5,1 c -5.5938,0 -6.0938,5.48438 -6.0938,8.1875 0,5.6875 2.6876,13.3594 5.3907,20.5469 C 22.9062,32.625 23.5,34.0312 23.5,36.0156 23.5,40.2188 20.5,44 15.5938,44 6.40625,44 2.70312,29.5312 2.70312,28.7344 c 0,-0.3906 0.39063,-0.8906 1.09376,-0.8906 0.90624,0 1,0.3906 1.40624,1.7968 2.39063,8.375 6.20308,12.375 10.09378,12.375 0.9062,0 2.6093,0 2.6093,-3.2968 0,-2.5938 -1.1093,-5.4844 -2.6093,-9.2813 C 10.4062,16.3594 10.4062,13.0781 10.4062,10.6719 10.4062,1.20312 17.2031,-1 22.2031,-1 c 2.8907,0 6.5,0.90625 10,4.59375 L 32.2969,3.5 c -1.5,-5.79688 -2.5,-9.625 -6,-14.4375"
       id="CMMI12-121" /><path
       d="m 30.5938,-24.3906 c 0,0.0937 0,0.2968 -0.2969,0.5937 -4.5938,4.6719 -16.8907,17.43752 -16.8907,48.4844 0,31.0781 12.0938,43.7344 17,48.7031 0,0.1094 0.1876,0.3125 0.1876,0.6094 0,0.2969 -0.2969,0.5 -0.6876,0.5 -1.1093,0 -9.6093,-7.375 -14.5,-18.3438 C 10.4062,45.1094 9,34.3594 9,24.8125 9,17.625 9.70312,5.48438 15.7031,-7.35938 20.5,-17.7344 28.7031,-25 29.9062,-25 c 0.5,0 0.6876,0.2031 0.6876,0.6094"
       id="CMR17-40" /><path
       d="m 26.2969,24.6875 c 0,7.1875 -0.7031,19.3281 -6.7031,32.1719 C 14.7969,67.2344 6.59375,74.5 5.40625,74.5 c -0.3125,0 -0.70313,-0.1094 -0.70313,-0.6094 0,-0.1875 0.09376,-0.2968 0.20313,-0.5 C 9.70312,68.4062 21.9062,55.75 21.9062,24.75 21.9062,-6.35938 9.79688,-19.0156 4.90625,-24.0156 4.79688,-24.2031 4.70312,-24.3125 4.70312,-24.5 4.70312,-25 5.09375,-25 5.40625,-25 6.5,-25 15,-17.625 19.9062,-6.65625 c 5,11.04687 6.3907,21.79685 6.3907,31.34375"
       id="CMR17-41" /><path
       d="m 44.5938,40.0938 c 2,0 2.8124,0 2.8124,1.9062 0,1 -0.8124,1 -2.6093,1 H 36.7031 C 38.5938,53.5781 40,60.8906 40.7969,64.1719 41.4062,66.6406 43.5,69 46.0938,69 c 2.1093,0 4.2031,-0.9062 5.2031,-1.8438 -3.8907,-0.4062 -5.0938,-3.375 -5.0938,-5.1406 0,-2.0625 1.5,-3.2812 3.3907,-3.2812 2,0 5,1.7344 5,5.625 C 54.5938,68.6406 50.4062,71 46,71 41.7031,71 37.5,67.7188 35.5,63.7188 33.7031,60.125 32.7031,56.4375 30.4062,43 h -6.7031 c -1.9062,0 -2.9062,0 -2.9062,-1.7969 0,-1.1093 0.6093,-1.1093 2.6093,-1.1093 h 6.3907 C 28,30.875 23.9062,8.46875 21.5938,-2.14062 19.9062,-10.7656 18.4062,-18 13.4062,-18 c -0.3124,0 -3.2031,0 -4.99995,1.8906 C 13.5,-15.7031 13.5,-11.3438 13.5,-11.25 c 0,1.98438 -1.5,3.17188 -3.4062,3.17188 -2.00005,0 -5.00005,-1.6875 -5.00005,-5.46878 C 5.09375,-17.8125 9.5,-20 13.4062,-20 c 10.1876,0 14.3907,18.15625 15.5,23.10938 1.7969,7.64062 6.6876,34.01562 7.1876,36.98442 z"
       id="CMMI12-102" /><path
       d="m 58.7969,56.9531 2.2969,2.2813 c 4.4062,4.4844 8.1093,5.5937 11.6093,5.875 1.0938,0.0937 2,0.1875 2,1.8906 0,1 -1,1 -1.2031,1 -1.2031,0 -2.5,0 -3.7031,0 h -4.0938 c -2.9062,0 -6,0 -8.7969,0 -0.7031,0 -1.8124,0 -1.8124,-1.9688 0,-0.9374 1,-1.0312 1.3124,-1.0312 3,0 3,-1.5 3,-2.0938 0,-1.0937 -0.8124,-2.5937 -2.8124,-4.8906 L 32.7969,30.7656 21.5,61.1094 C 20.9062,62.5 20.9062,62.7031 20.9062,62.9062 20.9062,65 25,65 26.2031,65 27.4062,65 28.5,65 28.5,66.8594 28.5,68 27.5938,68 27,68 c -1.7031,0 -3.7031,0 -5.4062,0 H 10.5 C 8.70312,68 6.79688,68 5.09375,68 4.40625,68 3.29688,68 3.29688,66.0312 3.29688,65 4.20312,65 5.70312,65 10.5938,65 11.5,64.0938 12.4062,61.8125 L 24.7969,28.6719 C 24.9062,28.375 25.2031,27.2656 25.2031,26.9688 25.2031,26.6719 20.2969,7.0625 20,6.0625 19.2031,3.39062 18.2031,2.89062 11.7969,2.89062 c -1.7031,0 -2.50002,0 -2.50002,-1.89062 0,-1 1.10932,-1 1.40622,-1 C 12.5,0 14.5938,0 16.5,0 h 11.7969 c 1.7969,0 3.9062,0 5.7031,0 0.7031,0 1.9062,0 1.9062,1.79688 0,1.09374 -0.7031,1.09374 -2.4062,1.09374 -6.2031,0 -6.2031,0.70313 -6.2031,1.79688 0,0.70312 0.7969,3.875 1.2969,5.875 l 3.6093,14.3437 c 0.5938,2.0782 0.5938,2.2657 1.5,3.2657 z"
       id="CMMI12-89" /><path
       d="m 72.2188,33.4062 c 0,2.1876 -0.5938,3.1876 -1.3907,3.1876 -0.5,0 -1.3125,-0.6876 -1.4062,-2.5938 -0.4063,-9.5938 -7,-15.0938 -14,-15.0938 -6.3125,0 -11.1094,4.2969 -16.0157,8.5938 -5.0937,4.5938 -10.2968,9.2031 -17.0937,9.2031 -10.9063,0 -16.8125,-11 -16.8125,-20.1093 0,-3.1876 1.29688,-3.1876 1.40625,-3.1876 1.09375,0 1.39063,2 1.39063,2.2969 0.40624,11 7.90622,15.3907 14.01562,15.3907 6.2969,0 11.0937,-4.2969 16,-8.5938 5.0937,-4.5938 10.2969,-9.2031 17.1094,-9.2031 10.9062,0 16.7969,11 16.7969,20.1093"
       id="CMSY10-24" /><path
       d="M 19.5,-0.484375 C 19.5,5.35938 17.5938,9.67188 13.5,9.67188 10.2969,9.67188 8.70312,7.07812 8.70312,4.89062 8.70312,2.6875 10.2031,0 13.5938,0 14.9062,0 16,0.40625 16.9062,1.29688 17.0938,1.5 17.2031,1.5 17.2969,1.5 17.5,1.5 17.5,0.078125 17.5,-0.421875 17.5,-3.75 16.9062,-10.2969 11.0938,-16.875 10,-18.0781 10,-18.2812 10,-18.4844 10,-19 10.5,-19.5 11,-19.5 c 0.7969,0 8.5,7.4531 8.5,19.015625"
       id="CMMI12-59" /><path
       d="m 50.7969,37.625 c 1.2969,0 4.6093,0 4.6093,3.1875 C 55.4062,43 53.5,43 51.7031,43 H 29.5938 C 14.5938,43 3.79688,26.3438 3.79688,14.5625 3.79688,6.09375 9.29688,-1 18.2969,-1 30.0938,-1 43,11.6719 43,26.6406 43,30.5312 42.0938,34.3125 39.7031,37.625 Z M 18.4062,1 C 13.2969,1 9.59375,4.89062 9.59375,11.7812 9.59375,17.7656 13.2031,37.625 27.9062,37.625 32.2031,37.625 37,35.5312 37,27.8281 37,24.3438 35.4062,15.9531 31.9062,10.1875 28.2969,4.29688 22.9062,1 18.4062,1"
       id="CMMI12-27" /><path
       d="m 30.5938,57.9062 c 1.8124,-5.2031 4,-12.7031 8.5,-25 6.3124,-17 9.1093,-23.20308 15.2031,-32.703075 C 55.7031,-1.90625 55.7969,-2 56.7031,-2 c 1.3907,0 3.5,1.203125 4.5938,2 1.4062,1.29688 1.5,1.40625 2.6093,6.3125 6,26.3281 13.5938,53.7813 15.5938,58.3906 0.0938,0.2031 2.0938,4 14.4062,4 2,0 3.8907,5.4219 3.8907,7.6719 0,1.625 -0.5938,1.625 -2,1.625 -10,0 -14.5,-4.1875 -15.7031,-5.4844 C 77.2969,68.9375 74.9062,61.6562 70.2969,45.0312 66.7969,32.2812 63.5938,19.3281 60.5,6.48438 55,14.75 51.9062,22.6094 47.0938,35.4531 c -5.2969,14.1407 -8.5,24.5 -11.1876,33.4688 C 35.2969,70.9062 35.2031,71 34.2969,71 34.0938,71 32.0938,71 29.2031,68.6094 28.2031,67.7188 28.0938,66.8125 28,65.7344 25.2031,39.2344 15.7969,13.0625 13.0938,8.28125 12.2969,6.78125 11.0938,5 9.09375,5 c -1,0 -4.89063,0.5 -7.5,2.875 -0.5,0.40625 -0.6875,0.40625 -0.796875,0.40625 -1.59375,0 -3.703125,-5 -3.703125,-7.390625 0,-3.093745 6.10937,-5.093745 8.90625,-5.093745 6.4062,0 11.5,13.79687 13.0938,18.40622 6.5,18.0938 9.6093,33 11.5,43.7031"
       id="CMSY10-78" /><path
       d="M 47.4062,40.7188 C 44.2031,40.1094 43,37.7188 43,35.8281 c 0,-2.4062 1.9062,-3.2031 3.2969,-3.2031 3,0 5.1093,2.5938 5.1093,5.2969 0,4.1875 -4.8124,6.0781 -9,6.0781 C 36.2969,44 32.9062,38.0156 32,36.125 29.7031,44 23.5,44 21.7031,44 11.5,44 6.09375,30.9375 6.09375,28.7344 c 0,-0.3906 0.40625,-0.8906 1.10937,-0.8906 0.79688,0 1,0.5937 1.20313,1 C 11.7969,39.9219 18.5,42.0156 21.4062,42.0156 c 4.5,0 5.3907,-4.2031 5.3907,-6.5937 0,-2.1875 -0.5938,-4.4844 -1.7969,-9.2813 L 21.5938,12.4688 C 20.0938,6.48438 17.2031,1 11.9062,1 11.4062,1 8.90625,1 6.79688,2.29688 10.4062,3 11.2031,5.98438 11.2031,7.1875 c 0,2 -1.49998,3.1875 -3.40622,3.1875 -2.39063,0 -5,-2.09375 -5,-5.28125 C 2.79688,0.890625 7.5,-1 11.7969,-1 16.5938,-1 20,2.79688 22.0938,6.89062 23.7031,1 28.7031,-1 32.4062,-1 42.5938,-1 48,12.0781 48,14.2656 c 0,0.5 -0.4062,0.9063 -1,0.9063 -0.9062,0 -1,-0.5 -1.2969,-1.2969 C 43,5.09375 37.2031,1 32.7031,1 c -3.5,0 -5.4062,2.59375 -5.4062,6.6875 0,2.1875 0.4062,3.7813 2,10.375 l 3.5,13.5625 c 1.5,6 4.9062,10.3906 9.5,10.3906 0.2031,0 3,0 5.1093,-1.2968"
       id="CMMI12-120" /><path
       d="m 64.2969,31.5156 c 1.5,0 3,0 3,1.6875 C 67.2969,35 65.5938,35 63.9062,35 H 8 c -1.70312,0 -3.40625,0 -3.40625,-1.7969 0,-1.6875 1.5,-1.6875 3,-1.6875 z M 63.9062,14 c 1.6876,0 3.3907,0 3.3907,1.7969 0,1.6875 -1.5,1.6875 -3,1.6875 H 7.59375 c -1.5,0 -3,0 -3,-1.6875 C 4.59375,14 6.29688,14 8,14 Z"
       id="CMR17-61" /><path
       d="m 17.9062,23.1094 c 2.6876,0 9.5,0 14.2969,1.8125 C 39.7969,27.8594 40.5,33.7188 40.5,35.5312 40.5,39.9688 36.7031,44 30.0938,44 19.5938,44 4.5,34.5312 4.5,16.7656 4.5,6.28125 10.5,-1 19.5938,-1 c 13.6093,0 22.2031,10.51562 22.2031,11.8125 0,0.5937 -0.5938,1.0937 -1,1.0937 C 40.5,11.9062 40.4062,11.8125 39.5,10.9219 33.0938,2.48438 23.5938,1 19.7969,1 c -5.7031,0 -8.7031,4.46875 -8.7031,11.8438 0,1.3906 0,3.8906 1.5,10.2656 z M 13.0938,25 c 4.3124,15.5 13.8124,17.0156 17,17.0156 C 34.5,42.0156 37.5,39.4062 37.5,35.5781 37.5,25 21.5,25 17.2969,25 Z"
       id="CMMI12-101" /><path
       d="m 212.37,-231.424 v -0.172 l 0.026,-0.01 0.026,-0.011 0.027,-0.011 0.027,-0.011 0.027,-0.012 0.028,-0.013 0.028,-0.014 0.028,-0.014 0.029,-0.015 0.029,-0.015 0.03,-0.017 0.029,-0.017 0.031,-0.018 0.03,-0.019 0.031,-0.02 0.032,-0.02 0.032,-0.022 0.032,-0.023 0.032,-0.024 0.033,-0.025 0.034,-0.027 0.034,-0.027 0.034,-0.029 0.035,-0.031 0.035,-0.031 0.036,-0.033 0.036,-0.035 0.036,-0.036 0.037,-0.038 0.038,-0.04 0.038,-0.041 0.038,-0.043 0.039,-0.045 0.039,-0.047 0.04,-0.049 0.04,-0.051 0.041,-0.054 0.042,-0.055 0.042,-0.058 0.042,-0.061 0.043,-0.063 0.044,-0.065 0.044,-0.069 0.044,-0.071 0.046,-0.074 0.046,-0.077 0.046,-0.08 0.047,-0.083 0.047,-0.087 0.049,-0.09 0.048,-0.093 0.05,-0.097 0.05,-0.101 0.05,-0.104 0.052,-0.109 0.052,-0.113 0.052,-0.116 0.053,-0.121 0.054,-0.126 0.055,-0.13 0.055,-0.135 0.056,-0.139 0.057,-0.145 0.057,-0.15 0.058,-0.154 0.059,-0.161 0.06,-0.165 0.06,-0.172 0.061,-0.177 0.062,-0.183 0.063,-0.189 0.063,-0.195 0.065,-0.201 0.065,-0.208 0.066,-0.215 0.067,-0.222 0.067,-0.228 0.069,-0.235 0.069,-0.243 0.07,-0.25 0.071,-0.258 0.072,-0.265 0.073,-0.273 0.074,-0.281 0.075,-0.289 0.075,-0.297 0.077,-0.306 0.078,-0.315 0.078,-0.323 0.08,-0.332 0.08,-0.34 0.082,-0.35 0.083,-0.36 0.083,-0.368 0.085,-0.378 0.086,-0.388 0.087,-0.398 0.088,-0.407 0.089,-0.417 0.09,-0.428 0.091,-0.438 0.093,-0.448 0.094,-0.458 0.095,-0.469 0.096,-0.48 0.097,-0.49 0.099,-0.502 0.099,-0.512 0.101,-0.523 0.103,-0.534 0.103,-0.545 0.105,-0.556 0.107,-0.567 0.107,-0.579 0.109,-0.59 0.11,-0.601 0.112,-0.612 0.113,-0.624 0.115,-0.635 0.116,-0.646 0.117,-0.657 0.119,-0.669 0.121,-0.68 0.122,-0.691 0.123,-0.702 0.125,-0.713 0.127,-0.724 0.128,-0.735 0.13,-0.745 0.132,-0.757 0.133,-0.766 0.135,-0.778 0.137,-0.787 0.138,-0.798 0.14,-0.807 0.142,-0.818 0.144,-0.827 0.145,-0.836 0.147,-0.846 0.149,-0.855 0.151,-0.863 0.153,-0.872 0.155,-0.88 0.157,-0.888 0.159,-0.896 0.161,-0.904 0.163,-0.91 0.165,-0.918 0.167,-0.924 0.169,-0.93 0.171,-0.936 0.173,-0.941 0.176,-0.947 0.178,-0.951 0.18,-0.956 0.182,-0.96 0.185,-0.963 0.187,-0.967 0.189,-0.969 0.192,-0.971 0.194,-0.974 0.197,-0.974 0.199,-0.976 0.202,-0.976 0.204,-0.976 0.207,-0.976 0.209,-0.975 0.212,-0.973 0.215,-0.971 0.217,-0.969 0.221,-0.965 0.223,-0.962 0.225,-0.958 0.229,-0.954 0.232,-0.948 0.234,-0.943 0.237,-0.936 0.241,-0.93 0.243,-0.922 0.247,-0.914 0.25,-0.906 0.252,-0.897 0.256,-0.888 0.26,-0.877 0.262,-0.867 0.266,-0.856 0.269,-0.844 0.273,-0.832 0.276,-0.819 0.279,-0.806 0.283,-0.792 0.287,-0.778 0.29,-0.763 0.294,-0.748 0.298,-0.732 0.301,-0.715 0.306,-0.699 0.309,-0.681 0.313,-0.663 v 92.624 0 h -0.313 -0.309 -0.306 -0.301 -0.298 -0.294 -0.29 -0.287 -0.283 -0.279 -0.276 -0.273 -0.269 -0.266 -0.262 -0.26 -0.256 -0.252 -0.25 -0.247 -0.243 -0.241 -0.237 -0.234 -0.232 -0.229 -0.225 -0.223 -0.221 -0.217 -0.215 -0.212 -0.209 -0.207 -0.204 -0.202 -0.199 -0.197 -0.194 -0.192 -0.189 -0.187 -0.185 -0.182 -0.18 -0.178 -0.176 -0.173 -0.171 -0.169 -0.167 -0.165 -0.163 -0.161 -0.159 -0.157 -0.155 -0.153 -0.151 -0.149 -0.147 -0.145 -0.144 -0.142 -0.14 -0.138 -0.137 -0.135 -0.133 -0.132 -0.13 -0.128 -0.127 -0.125 -0.123 -0.122 -0.121 -0.119 -0.117 -0.116 -0.115 -0.113 -0.112 -0.11 -0.109 -0.107 -0.107 -0.105 -0.103 -0.103 -0.101 -0.099 -0.099 -0.097 -0.096 -0.095 -0.094 -0.093 -0.091 -0.09 -0.089 -0.088 -0.087 -0.086 -0.085 -0.083 -0.083 -0.082 -0.08 -0.08 -0.078 -0.078 -0.077 -0.075 -0.075 -0.074 -0.073 -0.072 -0.071 -0.07 -0.069 -0.069 -0.067 -0.067 -0.066 -0.065 -0.065 -0.063 -0.063 -0.062 -0.061 -0.06 -0.06 -0.059 -0.058 -0.057 -0.057 -0.056 -0.055 -0.055 -0.054 -0.053 -0.052 -0.052 -0.052 -0.05 -0.05 -0.05 -0.048 -0.049 -0.047 -0.047 -0.046 -0.046 -0.046 -0.044 -0.044 -0.044 -0.043 -0.042 -0.042 -0.042 -0.041 -0.04 -0.04 -0.039 -0.039 -0.038 -0.038 -0.038 -0.037 -0.036 -0.036 -0.036 -0.035 -0.035 -0.034 -0.034 -0.034 -0.033 -0.032 -0.032 -0.032 -0.032 -0.031 -0.03 -0.031 -0.029 -0.03 -0.029 -0.029 -0.028 -0.028 -0.028 -0.027 -0.027 -0.027 -0.026 z"
       id="m94d3f7ccbf"
       style="stroke:#4682b4;stroke-opacity:0.2" /><path
       d="m 45.0938,61.5781 v 2.1875 h -23.5 C 9.90625,63.7656 9.70312,65.0781 9.29688,67 H 7.5 L 4.59375,48.3438 h 1.8125 c 0.29687,1.8906 1,6.9687 2.1875,8.8593 C 9.20312,58 16.5938,58 18.2969,58 h 22 L 29.2031,41.5781 c -7.4062,-11.0469 -12.5,-25.9687 -12.5,-38.99998 0,-1.1875 0,-4.57812 3.5938,-4.57812 3.6093,0 3.6093,3.39062 3.6093,4.67188 v 4.59374 c 0,16.29688 2.7969,27.04688 7.3907,33.92188 z"
       id="CMR17-55" /><path
       d="m 37.7031,23 h 26.5 c 1.3907,0 3.0938,0 3.0938,1.6875 0,1.7969 -1.5938,1.7969 -3.0938,1.7969 h -26.5 v 26.4218 c 0,1.3907 0,3.0938 -1.7031,3.0938 -1.7969,0 -1.7969,-1.5938 -1.7969,-3.0938 V 26.4844 H 7.70312 c -1.40624,0 -3.10937,0 -3.10937,-1.6875 C 4.59375,23 6.20312,23 7.70312,23 H 34.2031 V -3.40625 c 0,-1.39063 0,-3.09375 1.7031,-3.09375 1.7969,0 1.7969,1.59375 1.7969,3.09375 z"
       id="CMR17-43" /><path
       d="m 47.5,40.5625 -9.4062,21.8437 c 1.3124,2.3907 4.3124,2.7813 5.5,2.8907 0.6093,0 1.7031,0 1.7031,1.7656 0,1.125 -0.8907,1.125 -1.5,1.125 -1.7031,0 -3.7031,0 -5.3907,0 h -5.8124 c -6.0938,0 -10.5,0 -10.5938,0 -0.7969,0 -1.7969,0 -1.7969,-1.8906 0,-1 0.8907,-1 2.2031,-1 5.7969,0 6.1876,-1 7.1876,-3.3907 L 41.5,34.1406 19.7969,10.8281 C 16.2031,6.90625 11.9062,3.09375 4.5,3.09375 3.29688,3 2.5,3 2.5,1.0625 2.5,0.75 2.59375,0 3.70312,0 5.09375,0 6.59375,0 8,0 h 4.7031 c 3.2031,0 6.7031,0 9.7969,0 0.7031,0 1.9062,0 1.9062,1.79688 0,1 -0.7031,1.09374 -1.3124,1.09374 -2,0.20313 -3.2969,1.29688 -3.2969,2.89063 0,1.70313 1.2031,2.92187 4.1093,5.90625 l 8.8907,9.6875 C 35,23.6719 40.2969,29.4688 42.5,31.6562 L 53,7.07812 c 0.0938,-0.1875 0.5,-1.1875 0.5,-1.29687 0,-0.89063 -2.2031,-2.6875 -5.4062,-2.6875 -0.5938,0 -1.6876,0 -1.6876,-1.98437 C 46.4062,0 47.4062,0 47.9062,0 c 1.6876,0 3.6876,0 5.3907,0 h 11 C 66.0938,0 68,0 69.7031,0 70.4062,0 71.5,0 71.5,2.03125 c 0,1.0625 -1,1.0625 -1.9062,1.0625 -6,0 -6.1876,0.5 -7.8907,4.17187 L 48.5,38.1406 61.2031,51.8125 c 1,1.0156 3.2969,3.5313 4.2031,4.5313 C 69.7031,60.875 73.7031,65 81.7969,65 c 1,0.2969 2,0.2969 2,2.0625 0,1.125 -0.8907,1.125 -1.2969,1.125 -1.4062,0 -2.9062,0 -4.2969,0 h -4.6093 c -3.1876,0 -6.6876,0 -9.7969,0 -0.7031,0 -1.8907,0 -1.8907,-1.7969 0,-1 0.6876,-1.0937 1.2969,-1.0937 C 64.7969,65.1094 66.5,64.3125 66.5,62.4062 L 66.4062,62.2188 C 66.2969,61.5156 66.0938,60.5156 65,59.3281 Z"
       id="CMMI12-88" /><path
       d="M 15.2969,68.6875 3.40625,67.5938 V 65 c 5.89063,0 6.79685,-0.5938 6.79685,-5.3594 V 6.65625 C 10.2031,2.875 9.79688,2.39062 3.40625,2.39062 V -0.203125 C 5.79688,0 10.2031,0 12.7031,0 c 2.5938,0 7,0 9.3907,-0.203125 V 2.39062 c -6.3907,0 -6.7969,0.39063 -6.7969,4.26563 z"
       id="CMR17-108" /><path
       d="m 41.5,30.2031 c 0,5.0938 -1,13.3907 -12.7969,13.3907 -7.9062,0 -12,-6.0938 -13.5,-10.0938 H 15.0938 V 43.5938 L 3.29688,42.5 v -2.5938 c 5.90624,0 6.79692,-0.6093 6.79692,-5.4062 V 6.6875 C 10.0938,2.875 9.70312,2.39062 3.29688,2.39062 V -0.203125 C 5.70312,0 10.0938,0 12.7031,0 c 2.5938,0 7.0938,0 9.5,-0.203125 V 2.39062 c -6.4062,0 -6.7969,0.39063 -6.7969,4.29688 V 25.9062 C 15.4062,35.1094 21,42 28,42 c 7.4062,0 8.2031,-6.5938 8.2031,-11.4062 V 6.6875 c 0,-3.8125 -0.4062,-4.29688 -6.7969,-4.29688 V -0.203125 C 31.7969,0 36.2031,0 38.7969,0 c 2.6093,0 7.1093,0 9.5,-0.203125 V 2.39062 C 41.9062,2.39062 41.5,2.78125 41.5,6.6875 Z"
       id="CMR17-110" /><path
       d="m 23.5,-25 v 3.4844 H 14.0938 V 71 H 23.5 v 3.4844 H 10.5938 V -25 Z"
       id="CMR17-91" /><path
       d="M 14.2969,74.4844 H 1.40625 V 71 H 10.7969 V -21.5156 H 1.40625 V -25 H 14.2969 Z"
       id="CMR17-93" /><path
       d="M 60.7031,25.2344 H 58.9062 C 56.7031,10.5625 55.4062,2.59375 37.7969,2.59375 H 23.9062 c -4,0 -4.2031,0.48437 -4.2031,3.875 V 34 h 9.3907 C 38.5,34 39.4062,30.625 39.4062,22.3438 h 1.7969 V 48.1406 H 39.4062 C 39.4062,39.9531 38.5,36.5938 29.0938,36.5938 H 19.7031 V 61.1406 C 19.7031,64.5 19.9062,65 23.9062,65 h 13.6876 c 15.5,0 17.3124,-6.1094 18.7031,-19.2344 h 1.7969 L 55.7031,67.5781 H 5.09375 V 65 C 12,65 13.0938,65 13.0938,60.5312 V 7.04688 C 13.0938,2.59375 12,2.59375 5.09375,2.59375 V 0 H 57.0938 Z"
       id="CMR17-69" /><clipPath
       id="p4f19af1170"><rect
         height="204.12"
         width="178.92"
         x="26.35148"
         y="145.8"
         id="rect234" /></clipPath><clipPath
       id="p49928919b5"><rect
         height="133.56"
         width="279.72"
         x="210.31148"
         y="7.1999998"
         id="rect235" /></clipPath><clipPath
       id="p3d569bb202"><rect
         height="204.12"
         width="279.72"
         x="210.31148"
         y="145.8"
         id="rect236" /></clipPath><clipPath
       id="p49928919b5-1"><rect
         height="133.56"
         width="279.72"
         x="210.31148"
         y="7.1999998"
         id="rect235-9" /></clipPath><clipPath
       id="p5f3e21647a25230cb35632d91e80615e"><rect
         x="64.300003"
         y="10.8"
         width="390.60001"
         height="403.20001"
         id="rect2" /></clipPath><path
       id="m30e32995789d870ad79a2e54c91cf9c6"
       d="M 0,0 V -4" /><path
       id="c_7a2040fe3b94fcd41d0a72c84e93b115"
       d="m 31.78125,-66.40625 q -7.609375,0 -11.453125,7.5 Q 16.5,-51.421875 16.5,-36.375 q 0,14.984375 3.828125,22.484375 3.84375,7.5 11.453125,7.5 7.671875,0 11.5,-7.5 3.84375,-7.5 3.84375,-22.484375 0,-15.046875 -3.84375,-22.53125 -3.828125,-7.5 -11.5,-7.5 m 0,-7.8125 q 12.265625,0 18.734375,9.703125 6.46875,9.6875 6.46875,28.140625 0,18.40625 -6.46875,28.109375 -6.46875,9.6875 -18.734375,9.6875 -12.25,0 -18.71875,-9.6875 Q 6.59375,-17.96875 6.59375,-36.375 q 0,-18.453125 6.46875,-28.140625 6.46875,-9.703125 18.71875,-9.703125" /><path
       id="c_ed3e21196fb739f392806f09ca0594ef"
       d="M 10.6875,-12.40625 H 21 V 0 H 10.6875 Z" /><path
       id="c_1260a2df50f305f3db244e29828f968e"
       d="m 10.796875,-72.90625 h 38.71875 v 8.3125 h -29.6875 v 17.859375 q 2.140625,-0.734375 4.28125,-1.09375 2.15625,-0.359375 4.3125,-0.359375 12.203125,0 19.328125,6.6875 7.140625,6.6875 7.140625,18.109375 0,11.765625 -7.328125,18.296875 -7.328125,6.515625 -20.65625,6.515625 -4.59375,0 -9.359375,-0.78125 -4.75,-0.78125 -9.828125,-2.34375 V -11.625 q 4.390625,2.390625 9.078125,3.5625 4.6875,1.171875 9.90625,1.171875 8.453125,0 13.375,-4.4375 4.9375,-4.4375 4.9375,-12.0625 0,-7.609375 -4.9375,-12.046875 -4.921875,-4.453125 -13.375,-4.453125 -3.953125,0 -7.890625,0.875 -3.921875,0.875 -8.015625,2.734375 z" /><path
       id="c_42baa63129a918535c52adb20d687ea7"
       d="m 12.40625,-8.296875 h 16.109375 v -55.625 l -17.53125,3.515625 v -8.984375 l 17.4375,-3.515625 H 38.28125 V -8.296875 H 54.390625 V 0 H 12.40625 Z" /><path
       id="c_ed3f3ed3ebfbd18bcb9c012009a68ad1"
       d="M 19.1875,-8.296875 H 53.609375 V 0 H 7.328125 v -8.296875 q 5.609375,-5.8125 15.296875,-15.59375 9.703125,-9.796875 12.1875,-12.640625 4.734375,-5.3125 6.609375,-9 1.890625,-3.6875 1.890625,-7.25 0,-5.8125 -4.078125,-9.46875 -4.078125,-3.671875 -10.625,-3.671875 -4.640625,0 -9.796875,1.609375 -5.140625,1.609375 -11,4.890625 v -9.96875 Q 13.765625,-71.78125 18.9375,-73 q 5.1875,-1.21875 9.484375,-1.21875 11.328125,0 18.0625,5.671875 6.734375,5.65625 6.734375,15.125 0,4.5 -1.6875,8.53125 -1.671875,4.015625 -6.125,9.484375 -1.21875,1.421875 -7.765625,8.1875 -6.53125,6.765625 -18.453125,18.921875" /><path
       id="c_3dcfa38a02242cb63ec6726c6e70be7a"
       d="M 40.578125,-39.3125 Q 47.65625,-37.796875 51.625,-33 q 3.984375,4.78125 3.984375,11.8125 0,10.78125 -7.421875,16.703125 -7.421875,5.90625 -21.09375,5.90625 -4.578125,0 -9.4375,-0.90625 -4.859375,-0.90625 -10.03125,-2.71875 v -9.515625 q 4.09375,2.390625 8.96875,3.609375 4.890625,1.21875 10.21875,1.21875 9.265625,0 14.125,-3.65625 4.859375,-3.65625 4.859375,-10.640625 0,-6.453125 -4.515625,-10.078125 -4.515625,-3.640625 -12.5625,-3.640625 h -8.5 v -8.109375 h 8.890625 q 7.265625,0 11.125,-2.90625 3.859375,-2.90625 3.859375,-8.375 0,-5.609375 -3.984375,-8.609375 -3.96875,-3.015625 -11.390625,-3.015625 -4.0625,0 -8.703125,0.890625 -4.640625,0.875 -10.203125,2.71875 v -8.78125 q 5.625,-1.5625 10.53125,-2.34375 4.90625,-0.78125 9.25,-0.78125 11.234375,0 17.765625,5.109375 6.546875,5.09375 6.546875,13.78125 0,6.0625 -3.46875,10.234375 -3.46875,4.171875 -9.859375,5.78125" /><path
       id="m3b2d125790092c17af877e29e2858cbc"
       d="M 0,0 V -2" /><path
       id="c_277960698c3e9ebfcde4d2161536ce57"
       d="m 7.8125,-2.875 q 1.765625,1.359375 4.984375,1.359375 3.125,0 5.515625,-3 2.390625,-3 3.265625,-6.5625 L 26.125,-28.8125 q 1.078125,-4.828125 1.078125,-6.59375 0,-2.484375 -1.390625,-4.34375 -1.390625,-1.859375 -3.890625,-1.859375 -3.171875,0 -5.953125,1.984375 -2.78125,1.984375 -4.6875,5.03125 -1.90625,3.046875 -2.6875,6.171875 -0.1875,0.640625 -0.78125,0.640625 H 6.59375 q -0.78125,0 -0.78125,-0.9375 V -29 q 0.96875,-3.71875 3.3125,-7.25 2.34375,-3.546875 5.734375,-5.734375 3.40625,-2.203125 7.265625,-2.203125 3.65625,0 6.609375,1.953125 2.953125,1.953125 4.171875,5.3125 1.71875,-3.0625 4.375,-5.15625 2.65625,-2.109375 5.828125,-2.109375 2.15625,0 4.390625,0.765625 2.25,0.75 3.671875,2.3125 1.421875,1.5625 1.421875,3.90625 0,2.53125 -1.640625,4.375 Q 49.3125,-31 46.78125,-31 q -1.609375,0 -2.6875,-1.03125 -1.078125,-1.03125 -1.078125,-2.59375 0,-2.09375 1.4375,-3.671875 1.453125,-1.59375 3.453125,-1.890625 -1.8125,-1.421875 -4.984375,-1.421875 -3.21875,0 -5.59375,2.984375 -2.359375,2.984375 -3.34375,6.640625 L 29.59375,-14.3125 q -1.078125,4.015625 -1.078125,6.59375 0,2.546875 1.4375,4.375 1.4375,1.828125 3.84375,1.828125 4.6875,0 8.359375,-4.125 3.6875,-4.125 4.859375,-9.0625 0.203125,-0.578125 0.78125,-0.578125 h 1.234375 q 0.390625,0 0.625,0.265625 0.25,0.265625 0.25,0.609375 0,0.09375 -0.09375,0.296875 -1.421875,5.953125 -5.96875,10.59375 Q 39.3125,1.125 33.59375,1.125 q -3.65625,0 -6.609375,-1.96875 -2.953125,-1.984375 -4.1875,-5.359375 -1.5625,2.9375 -4.328125,5.140625 -2.75,2.1875 -5.875,2.1875 -2.140625,0 -4.421875,-0.765625 -2.265625,-0.75 -3.6875,-2.3125 -1.40625,-1.5625 -1.40625,-3.953125 0,-2.34375 1.625,-4.265625 1.640625,-1.9375 4.09375,-1.9375 1.65625,0 2.78125,1 1.125,1 1.125,2.609375 0,2.109375 -1.40625,3.671875 Q 9.90625,-3.265625 7.8125,-2.875" /><path
       id="m3400efa6b1638b3fea9e19e898273957"
       d="M 0,0 H 4" /><path
       id="mb39cfcf7402899e54c4d755745537394"
       d="M 0,0 H 2" /><path
       id="c_322d44ed1377de836f22e8890a965a87"
       d="m 9.71875,16.5 q 1.859375,1.421875 4.484375,1.421875 3.578125,0 5.8125,-7.90625 0.9375,-3.8125 5.078125,-25.109375 l 4.59375,-24.5 h -8.59375 q -0.96875,0 -0.96875,-1.328125 0.390625,-2.1875 1.265625,-2.1875 h 8.9375 l 1.171875,-6.5 q 0.578125,-3.03125 1.0625,-5.203125 0.5,-2.171875 1.0625,-4.015625 0.5625,-1.859375 1.671875,-4.15625 1.71875,-3.28125 4.625,-5.40625 2.90625,-2.125 6.265625,-2.125 2.203125,0 4.28125,0.8125 2.078125,0.8125 3.390625,2.421875 1.3125,1.609375 1.3125,3.796875 0,2.546875 -1.6875,4.4375 -1.671875,1.875 -4.0625,1.875 -1.625,0 -2.765625,-1 -1.140625,-1.015625 -1.140625,-2.625 0,-2.1875 1.484375,-3.828125 1.484375,-1.640625 3.6875,-1.875 -1.859375,-1.421875 -4.59375,-1.421875 -1.515625,0 -2.859375,1.421875 -1.34375,1.40625 -1.734375,3.015625 -0.625,2.546875 -2.78125,13.78125 L 37.5,-43.109375 h 10.296875 q 0.984375,0 0.984375,1.3125 -0.04687,0.25 -0.203125,0.859375 -0.140625,0.609375 -0.40625,0.984375 -0.265625,0.359375 -0.65625,0.359375 H 36.8125 l -4.640625,24.40625 q -0.875,5.328125 -2.03125,10.828125 Q 29,1.125 26.921875,6.90625 q -2.0625,5.796875 -5.296875,9.703125 -3.21875,3.90625 -7.609375,3.90625 -3.375,0 -6.03125,-1.9375 -2.65625,-1.921875 -2.65625,-5.09375 0,-2.546875 1.625,-4.4375 1.640625,-1.875 4.125,-1.875 1.671875,0 2.78125,1 1.125,1.015625 1.125,2.625 0,2.140625 -1.59375,3.921875 Q 11.8125,16.5 9.71875,16.5" /><path
       id="c_06a7a4502300c60b4feec85758ecf628"
       d="M 31,24.8125 Q 25.4375,20.40625 21.40625,14.71875 17.390625,9.03125 14.8125,2.578125 12.25,-3.859375 10.984375,-10.890625 9.71875,-17.921875 9.71875,-25 q 0,-7.171875 1.265625,-14.203125 1.265625,-7.03125 3.875,-13.53125 2.625,-6.5 6.671875,-12.15625 Q 25.59375,-70.5625 31,-74.8125 31,-75 31.5,-75 h 0.921875 q 0.296875,0 0.53125,0.265625 0.25,0.265625 0.25,0.609375 0,0.4375 -0.1875,0.640625 -4.890625,4.78125 -8.140625,10.25 -3.25,5.46875 -5.234375,11.65625 -1.96875,6.171875 -2.84375,12.796875 -0.875,6.609375 -0.875,13.78125 0,31.78125 16.984375,48.296875 0.296875,0.28125 0.296875,0.828125 0,0.234375 -0.265625,0.546875 Q 32.671875,25 32.421875,25 H 31.5 Q 31,25 31,24.8125" /><path
       id="c_29ef64aee4661a11ab58096c18171e9e"
       d="m 9.90625,18.015625 q 0,-0.4375 0.203125,-0.625 Q 17.09375,9.8125 17.09375,-0.390625 V -0.875 Q 15.625,0 13.921875,0 11.625,0 10.015625,-1.609375 8.40625,-3.21875 8.40625,-5.515625 q 0,-2.34375 1.609375,-3.90625 1.609375,-1.5625 3.90625,-1.5625 3.46875,0 4.609375,3.203125 1.140625,3.1875 1.140625,7.390625 0,3.515625 -0.859375,6.9375 -0.84375,3.421875 -2.578125,6.6875 Q 14.5,16.5 12.109375,19.09375 11.8125,19.390625 11.375,19.390625 q -0.484375,0 -0.984375,-0.453125 Q 9.90625,18.5 9.90625,18.015625 m -1.5,-55.609375 q 0,-1.421875 0.71875,-2.6875 0.734375,-1.265625 2.03125,-2.046875 1.296875,-0.78125 2.765625,-0.78125 1.40625,0 2.703125,0.78125 1.296875,0.78125 2.03125,2.046875 0.734375,1.265625 0.734375,2.6875 0,2.234375 -1.59375,3.875 -1.578125,1.640625 -3.875,1.640625 -2.25,0 -3.890625,-1.640625 -1.625,-1.640625 -1.625,-3.875" /><path
       id="c_3260b495c6402fff66ed286585579e9c"
       d="m 2.78125,18.796875 q 0,-0.578125 0.09375,-0.78125 l 14.703125,-59.03125 q 0.4375,-1.421875 1.578125,-2.296875 1.15625,-0.875 2.625,-0.875 1.265625,0 2.140625,0.765625 0.890625,0.75 0.890625,2.015625 0,0.296875 -0.03125,0.46875 -0.03125,0.171875 -0.07813,0.359375 L 18.79687,-17.1875 q -0.96875,4.15625 -0.96875,7.171875 0,3.71875 1.75,6.109375 1.765625,2.390625 5.328125,2.390625 7.265625,0 12.796875,-9.078125 0.04687,-0.09375 0.0625,-0.140625 0.03125,-0.0625 0.03125,-0.15625 l 7.21875,-29 q 0.34375,-1.328125 1.5625,-2.265625 1.21875,-0.953125 2.640625,-0.953125 1.171875,0 2.078125,0.78125 0.90625,0.78125 0.90625,2.046875 0,0.578125 -0.109375,0.78125 l -7.171875,28.8125 q -0.734375,2.828125 -0.734375,4.875 0,4.296875 2.9375,4.296875 3.125,0 4.703125,-3.859375 1.59375,-3.859375 2.765625,-9.328125 0.1875,-0.578125 0.828125,-0.578125 h 1.171875 q 0.390625,0 0.65625,0.3125 0.265625,0.3125 0.265625,0.65625 -1.75,6.984375 -3.828125,11.21875 Q 51.60937,1.125 46.92187,1.125 q -3.3125,0 -5.875,-1.90625 -2.5625,-1.90625 -3.34375,-5.125 -2.5,3.125 -5.84375,5.078125 Q 28.515625,1.125 24.8125,1.125 q -6.25,0 -9.828125,-2.9375 L 9.90625,18.40625 q -0.28125,1.421875 -1.453125,2.296875 -1.171875,0.875 -2.640625,0.875 -1.21875,0 -2.125,-0.765625 -0.90625,-0.75 -0.90625,-2.015625" /><path
       id="c_01bd98e0cf1b355b13e73042b8c9bdee"
       d="m 9.90625,18.015625 q 0,-0.4375 0.390625,-0.828125 3.625,-3.46875 5.625,-8.015625 2,-4.53125 2,-9.5625 v -1.21875 Q 16.3125,0 13.921875,0 11.625,0 10.015625,-1.609375 8.40625,-3.21875 8.40625,-5.515625 q 0,-2.34375 1.609375,-3.90625 1.609375,-1.5625 3.90625,-1.5625 3.5625,0 5.078125,3.296875 1.515625,3.296875 1.515625,7.296875 0,5.5625 -2.234375,10.5625 Q 16.0625,15.1875 12.015625,19.1875 11.625,19.390625 11.375,19.390625 q -0.484375,0 -0.984375,-0.453125 Q 9.90625,18.5 9.90625,18.015625" /><path
       id="c_881ffaa3ac189934f18d018de3d82979"
       d="M 18.703125,1.125 Q 14.265625,1.125 10.8125,-1 7.375,-3.125 5.484375,-6.734375 q -1.875,-3.625 -1.875,-7.96875 0,-4.640625 2.09375,-9.765625 2.109375,-5.125 5.75,-9.375 3.640625,-4.25 8.21875,-6.75 4.59375,-2.515625 9.4375,-2.515625 h 25.1875 q 1.03125,0 1.75,0.6875 0.734375,0.671875 0.734375,1.84375 0,1.46875 -1.046875,2.5625 -1.046875,1.09375 -2.515625,1.09375 H 41.015625 q 2.875,4.296875 2.875,10.40625 0,5.03125 -1.953125,9.921875 -1.953125,4.875 -5.421875,8.90625 Q 33.0625,-3.65625 28.4375,-1.265625 23.828125,1.125 18.703125,1.125 m 0.09375,-2.640625 q 5.46875,0 9.6875,-4.265625 4.234375,-4.28125 6.46875,-10.453125 2.25,-6.171875 2.25,-11.453125 0,-4.296875 -2.375,-6.765625 -2.359375,-2.46875 -6.609375,-2.46875 -5.8125,0 -9.890625,3.90625 -4.0625,3.90625 -6.09375,9.828125 -2.03125,5.90625 -2.03125,11.375 0,4.296875 2.265625,7.296875 2.28125,3 6.328125,3" /><path
       id="c_b865a8a4692360a5eaaff4ecf56eccf7"
       d="m 6.5,25 q -0.890625,0 -0.890625,-0.875 0,-0.4375 0.203125,-0.640625 Q 22.90625,6.78125 22.90625,-25 22.90625,-56.78125 6,-73.296875 5.609375,-73.53125 5.609375,-74.125 q 0,-0.34375 0.265625,-0.609375 Q 6.15625,-75 6.5,-75 h 0.921875 q 0.296875,0 0.484375,0.1875 7.1875,5.671875 11.96875,13.78125 4.78125,8.09375 7,17.28125 2.234375,9.171875 2.234375,18.75 0,7.078125 -1.203125,13.9375 -1.203125,6.859375 -3.8125,13.515625 -2.609375,6.671875 -6.609375,12.3125 -4,5.640625 -9.578125,10.046875 Q 7.71875,25 7.421875,25 Z" /><path
       id="c_7bbc93c01755cdeb977d08bdfb9ce616"
       d="m 7.515625,-13.28125 q -0.828125,0 -1.375,-0.625 -0.53125,-0.640625 -0.53125,-1.375 0,-0.828125 0.53125,-1.40625 0.546875,-0.59375 1.375,-0.59375 H 70.3125 q 0.734375,0 1.265625,0.59375 0.546875,0.578125 0.546875,1.40625 0,0.734375 -0.546875,1.375 -0.53125,0.625 -1.265625,0.625 z m 0,-19.4375 q -0.828125,0 -1.375,-0.578125 -0.53125,-0.59375 -0.53125,-1.421875 0,-0.734375 0.53125,-1.359375 0.546875,-0.640625 1.375,-0.640625 H 70.3125 q 0.734375,0 1.265625,0.640625 0.546875,0.625 0.546875,1.359375 0,0.828125 -0.546875,1.421875 -0.53125,0.578125 -1.265625,0.578125 z" /><path
       id="c_1a459ac34855d27ec37ccb0e66298d36"
       d="m 9.28125,0 v -3.515625 q 12.5,0 12.5,-3.171875 v -52.5 q -5.171875,2.5 -13.09375,2.5 v -3.515625 q 12.265625,0 18.515625,-6.40625 h 1.40625 q 0.34375,0 0.65625,0.28125 0.328125,0.265625 0.328125,0.609375 V -6.6875 q 0,3.171875 12.5,3.171875 V 0 Z" /><path
       id="c_2bb5da3abbc13154082a2b872a7b9434"
       d="m 42.390625,116.01563 -22.5625,-52.531255 -7.03125,5.40625 -1.8125,-1.796875 L 25.296875,56 46.390625,105.07813 98.296875,-3.078125 Q 98.78125,-4 100,-4 q 0.82813,0 1.40625,0.59375 Q 102,-2.828125 102,-2 q 0,0.484375 -0.0937,0.6875 L 46.0938,115.09375 q -0.390625,0.92188 -1.515625,0.92188 z" /><path
       id="c_1210e7f4d85518601ea3049211d562d0"
       d="m 4.984375,0 v -2.6875 q 0,-0.25 0.1875,-0.53125 l 15.53125,-17.1875 q 3.515625,-3.8125 5.703125,-6.390625 2.203125,-2.59375 4.34375,-5.96875 2.15625,-3.375 3.40625,-6.859375 1.25,-3.484375 1.25,-7.390625 0,-4.109375 -1.515625,-7.84375 Q 32.375,-58.59375 29.375,-60.84375 q -3,-2.25 -7.25,-2.25 -4.34375,0 -7.8125,2.625 -3.46875,2.609375 -4.890625,6.75 Q 9.8125,-53.8125 10.5,-53.8125 q 2.25,0 3.828125,1.515625 1.59375,1.515625 1.59375,3.90625 0,2.296875 -1.59375,3.890625 Q 12.75,-42.921875 10.5,-42.921875 q -2.34375,0 -3.9375,-1.625 -1.578125,-1.640625 -1.578125,-3.84375 0,-3.765625 1.40625,-7.046875 1.421875,-3.296875 4.078125,-5.859375 2.671875,-2.578125 6.015625,-3.9375 3.34375,-1.375 7.09375,-1.375 5.71875,0 10.640625,2.421875 4.9375,2.421875 7.8125,6.84375 2.890625,4.40625 2.890625,10.328125 0,4.34375 -1.90625,8.25 -1.90625,3.90625 -4.890625,7.109375 -2.96875,3.1875 -7.609375,7.25 Q 25.875,-20.359375 24.421875,-19 L 13.09375,-8.109375 h 9.609375 q 7.078125,0 11.84375,-0.109375 4.765625,-0.125 5.046875,-0.375 Q 40.765625,-9.859375 42,-17.828125 h 2.921875 L 42.09375,0 Z" /><path
       id="c_dc1dfbded6c1a708bd2ce45e5309b560"
       d="m 10.109375,-1.703125 q 0,-0.546875 0.390625,-1.625 2.78125,-5.796875 5.1875,-11.390625 2.421875,-5.59375 4.34375,-10.890625 1.9375,-5.296875 3.546875,-11.3125 H 17.1875 q -3.65625,0 -6.84375,2.296875 -3.171875,2.296875 -5.265625,5.8125 -0.1875,0.390625 -0.578125,0.390625 H 3.328125 q -0.9375,0 -0.9375,-0.96875 0,-0.203125 0.203125,-0.59375 3.265625,-5.5625 7,-9.34375 3.734375,-3.78125 8.421875,-3.78125 h 36.28125 q 1.03125,0 1.75,0.6875 0.734375,0.671875 0.734375,1.84375 0,1.46875 -1.046875,2.5625 -1.046875,1.09375 -2.515625,1.09375 H 40.484375 q -1.609375,7.875 -1.765625,15.34375 0,9.609375 3.375,17.375 0.296875,0.59375 0.296875,1.21875 0,1.078125 -0.640625,2.015625 -0.640625,0.921875 -1.640625,1.5 -1,0.59375 -2.125,0.59375 -2.625,0 -3.609375,-4.296875 -0.96875,-4.296875 -0.96875,-8.359375 0,-5.703125 0.96875,-11 0.984375,-5.296875 3.125,-14.390625 H 26.609375 q -7.90625,32.03125 -9.515625,35.3125 Q 15.671875,1.125 13.1875,1.125 q -1.21875,0 -2.15625,-0.8125 -0.921875,-0.796875 -0.921875,-2.015625" /><path
       id="c_67a1adfdf9fbdb7189c9402c3f73ee06"
       d="m 20.125,1.125 q -4.796875,0 -8.390625,-2.484375 -3.578125,-2.5 -5.46875,-6.71875 -1.875,-4.234375 -1.875,-8.921875 0,-7.125 3.59375,-13.390625 3.59375,-6.28125 9.734375,-10.03125 6.15625,-3.765625 13.1875,-3.765625 4.296875,0 7.5,2.21875 3.203125,2.21875 3.203125,6.375 0,5.765625 -4.59375,8.578125 -4.59375,2.796875 -10.359375,3.453125 -5.75,0.65625 -12.734375,0.65625 H 13.625 q -1.609375,5.96875 -1.609375,10.203125 0,4.453125 2.046875,7.828125 2.046875,3.359375 6.25,3.359375 5.953125,0 11.4375,-2.734375 5.5,-2.734375 8.96875,-7.5625 0.296875,-0.296875 0.78125,-0.296875 0.5,0 1,0.5625 0.515625,0.5625 0.515625,1.046875 0,0.390625 -0.1875,0.59375 -3.671875,5.125 -9.875,8.078125 Q 26.765625,1.125 20.125,1.125 m -5.921875,-26.609375 q 5.8125,0 10.75,-0.53125 4.9375,-0.546875 8.9375,-2.71875 4,-2.171875 4,-6.765625 0,-1.859375 -1.03125,-3.25 -1.015625,-1.390625 -2.65625,-2.125 -1.640625,-0.734375 -3.390625,-0.734375 -4.25,0 -7.640625,2.296875 -3.390625,2.296875 -5.59375,5.984375 -2.203125,3.6875 -3.375,7.84375" /><path
       id="c_61c20b1e4c944de7566e5fda525fb070"
       d="m 10.203125,-23 q -0.828125,0 -1.375,-0.625 -0.53125,-0.640625 -0.53125,-1.375 0,-0.734375 0.53125,-1.359375 Q 9.375,-27 10.203125,-27 h 57.375 q 0.78125,0 1.296875,0.640625 0.515625,0.625 0.515625,1.359375 0,0.734375 -0.515625,1.375 Q 68.359375,-23 67.578125,-23 Z" /><path
       id="c_a764f622c6f118158a993ace88ddaf97"
       d="m 3.078125,0 v -3.515625 q 3.421875,0 5.609375,-0.53125 2.203125,-0.546875 2.203125,-2.640625 v -52.5 q 0,-2.671875 -0.8125,-3.875 -0.796875,-1.203125 -2.3125,-1.46875 Q 6.25,-64.796875 3.078125,-64.796875 V -68.3125 l 14.84375,-1.078125 V -6.6875 q 0,2.09375 2.1875,2.640625 2.203125,0.53125 5.578125,0.53125 V 0 Z" /><path
       id="c_f29dbb720c0206d930ab49b6b497324a"
       d="m 2.984375,0 v -3.515625 q 3.40625,0 5.609375,-0.53125 2.203125,-0.546875 2.203125,-2.640625 v -27.296875 q 0,-2.6875 -0.8125,-3.875 -0.796875,-1.203125 -2.3125,-1.46875 -1.515625,-0.265625 -4.6875,-0.265625 v -3.515625 l 14.5,-1.078125 v 9.765625 q 2,-4.296875 5.921875,-7.03125 3.9375,-2.734375 8.578125,-2.734375 6.9375,0 10.421875,3.328125 3.5,3.3125 3.5,10.140625 V -6.6875 q 0,2.09375 2.1875,2.640625 2.203125,0.53125 5.625,0.53125 V 0 H 30.8125 v -3.515625 q 3.421875,0 5.609375,-0.53125 Q 38.625,-4.59375 38.625,-6.6875 v -23.734375 q 0,-4.875 -1.421875,-8.03125 -1.40625,-3.15625 -5.8125,-3.15625 -5.796875,0 -9.546875,4.640625 -3.734375,4.640625 -3.734375,10.546875 V -6.6875 q 0,2.09375 2.203125,2.640625 2.203125,0.53125 5.5625,0.53125 V 0 Z" /><path
       id="c_f47f2818876b2f1a61c47f270461e46e"
       d="M 25,2.203125 Q 12.75,2.203125 8.328125,-7.875 3.90625,-17.96875 3.90625,-31.890625 q 0,-8.6875 1.578125,-16.34375 Q 7.078125,-55.90625 11.78125,-61.25 16.5,-66.609375 25,-66.609375 q 6.59375,0 10.78125,3.234375 4.203125,3.21875 6.40625,8.328125 2.203125,5.09375 3,10.9375 Q 46,-38.28125 46,-31.890625 q 0,8.59375 -1.59375,16.09375 -1.578125,7.5 -6.21875,12.75 -4.640625,5.25 -13.1875,5.25 m 0,-2.59375 q 5.5625,0 8.296875,-5.703125 2.734375,-5.71875 3.375,-12.65625 0.640625,-6.9375 0.640625,-14.75 0,-7.515625 -0.640625,-13.859375 -0.640625,-6.359375 -3.359375,-11.5 -2.703125,-5.15625 -8.3125,-5.15625 -5.65625,0 -8.390625,5.1875 -2.734375,5.171875 -3.375,11.5 -0.640625,6.3125 -0.640625,13.828125 0,5.5625 0.265625,10.5 0.28125,4.9375 1.453125,10.1875 1.171875,5.25 3.78125,8.84375 2.609375,3.578125 6.90625,3.578125" /><path
       id="c_83c92fcf7184248154f741f54a0382f5"
       d="M 11.71875,-12.40625 H 22.015625 V -4 l -8,15.625 H 7.71875 l 4,-15.625 z" /><path
       id="c_d41d8cd98f00b204e9800998ecf8427e"
       d="" /><path
       id="c_8b48a7401ae680eb5f4c605f13a7b112"
       d="m 8.40625,-5.515625 q 0,-2.25 1.65625,-3.859375 1.65625,-1.609375 3.859375,-1.609375 1.359375,0 2.671875,0.734375 1.328125,0.734375 2.0625,2.046875 0.734375,1.3125 0.734375,2.6875 0,2.1875 -1.625,3.859375 Q 16.15625,0 13.921875,0 11.71875,0 10.0625,-1.65625 8.40625,-3.328125 8.40625,-5.515625" /><path
       id="c_7d09e94cce4bdf71f2297f5bbc354b76"
       d="m 8.6875,-11.375 q 1.03125,2.921875 3.15625,5.328125 2.125,2.390625 5.03125,3.734375 2.90625,1.328125 6.03125,1.328125 7.21875,0 9.953125,-5.609375 2.734375,-5.609375 2.734375,-13.625 0,-3.46875 -0.125,-5.828125 -0.109375,-2.375 -0.65625,-4.5625 -0.921875,-3.515625 -3.25,-6.15625 -2.3125,-2.640625 -5.6875,-2.640625 -3.359375,0 -5.78125,1.03125 -2.421875,1.015625 -3.9375,2.390625 -1.5,1.359375 -2.671875,2.875 Q 12.3125,-31.59375 12.015625,-31.5 h -1.125 q -0.25,0 -0.625,-0.3125 Q 9.90625,-32.125 9.90625,-32.421875 v -33.40625 q 0,-0.234375 0.3125,-0.5 0.328125,-0.28125 0.671875,-0.28125 H 11.1875 q 6.734375,3.234375 14.296875,3.234375 7.421875,0 14.3125,-3.234375 h 0.296875 q 0.34375,0 0.625,0.25 0.296875,0.25 0.296875,0.53125 v 0.9375 q 0,0.484375 -0.1875,0.484375 -3.421875,4.546875 -8.578125,7.09375 -5.15625,2.53125 -10.671875,2.53125 -4,0 -8.203125,-1.125 v 18.890625 q 3.328125,-2.6875 5.9375,-3.828125 Q 21.921875,-42 25.984375,-42 q 5.515625,0 9.875,3.1875 4.375,3.171875 6.71875,8.28125 2.34375,5.09375 2.34375,10.40625 0,6.015625 -2.953125,11.140625 -2.953125,5.125 -8.03125,8.15625 -5.078125,3.03125 -11.03125,3.03125 -4.9375,0 -9.0625,-2.53125 -4.125,-2.546875 -6.5,-6.84375 -2.359375,-4.296875 -2.359375,-9.140625 0,-2.25 1.453125,-3.65625 1.46875,-1.421875 3.671875,-1.421875 2.203125,0 3.6875,1.453125 1.484375,1.4375 1.484375,3.625 0,2.15625 -1.484375,3.640625 -1.484375,1.484375 -3.6875,1.484375 -0.34375,0 -0.78125,-0.0625 -0.4375,-0.07813 -0.640625,-0.125" /><inkscape:perspective
       sodipodi:type="inkscape:persp3d"
       inkscape:vp_x="0 : 2.9999934 : 1"
       inkscape:vp_y="0 : 999.99998 : 0"
       inkscape:vp_z="720.00001 : 2.9999934 : 1"
       inkscape:persp3d-origin="360.00001 : -73.666676 : 1"
       id="perspective289-6" /><clipPath
       id="cp3-4"><polygon
         id="polygon1797-2"
         points="73,190 73,203.563 95,203.563 95,190 " /></clipPath><clipPath
       id="cp5-5"><polygon
         id="polygon1821-4"
         points="73,190 73,203.563 95,203.563 95,190 " /></clipPath><clipPath
       id="cp7-9"><polygon
         id="polygon1845-6"
         points="73,190 73,203.563 88,203.563 88,190 " /></clipPath><clipPath
       id="cp9-9"><polygon
         id="polygon1867-7"
         points="73,190 73,203.563 88,203.563 88,190 " /></clipPath><clipPath
       id="cp10-4"><polygon
         id="polygon1874-2"
         points="74,13 74,364 434,364 434,13 " /></clipPath><clipPath
       id="cp11-1"><polygon
         id="polygon1889-8"
         points="73,190 73,203.563 88,203.563 88,190 " /></clipPath><clipPath
       id="cp13-3"><polygon
         id="polygon1907-3"
         points="74,190 74,204 95,204 95,190 " /></clipPath><clipPath
       id="cp15-3"><polygon
         id="polygon1931-8"
         points="74,190 74,204 95,204 95,190 " /></clipPath><clipPath
       id="cp17-7"><polygon
         id="polygon1955-2"
         points="73,190 73,204 88,204 88,190 " /></clipPath><clipPath
       id="cp19-6"><polygon
         id="polygon1977-1"
         points="73,190 73,204 88,204 88,190 " /></clipPath><clipPath
       id="cp21-9"><polygon
         id="polygon1999-7"
         points="73,190 73,204 88,204 88,190 " /></clipPath><clipPath
       id="p5f3e21647a25230cb35632d91e80615e-9"><rect
         x="64.300003"
         y="10.8"
         width="390.60001"
         height="403.20001"
         id="rect2-6" /></clipPath><path
       id="m30e32995789d870ad79a2e54c91cf9c6-0"
       d="M 0,0 V -4" /><path
       id="c_7a2040fe3b94fcd41d0a72c84e93b115-1"
       d="m 31.78125,-66.40625 q -7.609375,0 -11.453125,7.5 Q 16.5,-51.421875 16.5,-36.375 q 0,14.984375 3.828125,22.484375 3.84375,7.5 11.453125,7.5 7.671875,0 11.5,-7.5 3.84375,-7.5 3.84375,-22.484375 0,-15.046875 -3.84375,-22.53125 -3.828125,-7.5 -11.5,-7.5 m 0,-7.8125 q 12.265625,0 18.734375,9.703125 6.46875,9.6875 6.46875,28.140625 0,18.40625 -6.46875,28.109375 -6.46875,9.6875 -18.734375,9.6875 -12.25,0 -18.71875,-9.6875 Q 6.59375,-17.96875 6.59375,-36.375 q 0,-18.453125 6.46875,-28.140625 6.46875,-9.703125 18.71875,-9.703125" /><path
       id="c_ed3e21196fb739f392806f09ca0594ef-0"
       d="M 10.6875,-12.40625 H 21 V 0 H 10.6875 Z" /><path
       id="c_1260a2df50f305f3db244e29828f968e-6"
       d="m 10.796875,-72.90625 h 38.71875 v 8.3125 h -29.6875 v 17.859375 q 2.140625,-0.734375 4.28125,-1.09375 2.15625,-0.359375 4.3125,-0.359375 12.203125,0 19.328125,6.6875 7.140625,6.6875 7.140625,18.109375 0,11.765625 -7.328125,18.296875 -7.328125,6.515625 -20.65625,6.515625 -4.59375,0 -9.359375,-0.78125 -4.75,-0.78125 -9.828125,-2.34375 V -11.625 q 4.390625,2.390625 9.078125,3.5625 4.6875,1.171875 9.90625,1.171875 8.453125,0 13.375,-4.4375 4.9375,-4.4375 4.9375,-12.0625 0,-7.609375 -4.9375,-12.046875 -4.921875,-4.453125 -13.375,-4.453125 -3.953125,0 -7.890625,0.875 -3.921875,0.875 -8.015625,2.734375 z" /><path
       id="c_42baa63129a918535c52adb20d687ea7-4"
       d="m 12.40625,-8.296875 h 16.109375 v -55.625 l -17.53125,3.515625 v -8.984375 l 17.4375,-3.515625 H 38.28125 V -8.296875 H 54.390625 V 0 H 12.40625 Z" /><path
       id="c_ed3f3ed3ebfbd18bcb9c012009a68ad1-8"
       d="M 19.1875,-8.296875 H 53.609375 V 0 H 7.328125 v -8.296875 q 5.609375,-5.8125 15.296875,-15.59375 9.703125,-9.796875 12.1875,-12.640625 4.734375,-5.3125 6.609375,-9 1.890625,-3.6875 1.890625,-7.25 0,-5.8125 -4.078125,-9.46875 -4.078125,-3.671875 -10.625,-3.671875 -4.640625,0 -9.796875,1.609375 -5.140625,1.609375 -11,4.890625 v -9.96875 Q 13.765625,-71.78125 18.9375,-73 q 5.1875,-1.21875 9.484375,-1.21875 11.328125,0 18.0625,5.671875 6.734375,5.65625 6.734375,15.125 0,4.5 -1.6875,8.53125 -1.671875,4.015625 -6.125,9.484375 -1.21875,1.421875 -7.765625,8.1875 -6.53125,6.765625 -18.453125,18.921875" /><path
       id="c_3dcfa38a02242cb63ec6726c6e70be7a-1"
       d="M 40.578125,-39.3125 Q 47.65625,-37.796875 51.625,-33 q 3.984375,4.78125 3.984375,11.8125 0,10.78125 -7.421875,16.703125 -7.421875,5.90625 -21.09375,5.90625 -4.578125,0 -9.4375,-0.90625 -4.859375,-0.90625 -10.03125,-2.71875 v -9.515625 q 4.09375,2.390625 8.96875,3.609375 4.890625,1.21875 10.21875,1.21875 9.265625,0 14.125,-3.65625 4.859375,-3.65625 4.859375,-10.640625 0,-6.453125 -4.515625,-10.078125 -4.515625,-3.640625 -12.5625,-3.640625 h -8.5 v -8.109375 h 8.890625 q 7.265625,0 11.125,-2.90625 3.859375,-2.90625 3.859375,-8.375 0,-5.609375 -3.984375,-8.609375 -3.96875,-3.015625 -11.390625,-3.015625 -4.0625,0 -8.703125,0.890625 -4.640625,0.875 -10.203125,2.71875 v -8.78125 q 5.625,-1.5625 10.53125,-2.34375 4.90625,-0.78125 9.25,-0.78125 11.234375,0 17.765625,5.109375 6.546875,5.09375 6.546875,13.78125 0,6.0625 -3.46875,10.234375 -3.46875,4.171875 -9.859375,5.78125" /><path
       id="m3b2d125790092c17af877e29e2858cbc-1"
       d="M 0,0 V -2" /><path
       id="c_277960698c3e9ebfcde4d2161536ce57-4"
       d="m 7.8125,-2.875 q 1.765625,1.359375 4.984375,1.359375 3.125,0 5.515625,-3 2.390625,-3 3.265625,-6.5625 L 26.125,-28.8125 q 1.078125,-4.828125 1.078125,-6.59375 0,-2.484375 -1.390625,-4.34375 -1.390625,-1.859375 -3.890625,-1.859375 -3.171875,0 -5.953125,1.984375 -2.78125,1.984375 -4.6875,5.03125 -1.90625,3.046875 -2.6875,6.171875 -0.1875,0.640625 -0.78125,0.640625 H 6.59375 q -0.78125,0 -0.78125,-0.9375 V -29 q 0.96875,-3.71875 3.3125,-7.25 2.34375,-3.546875 5.734375,-5.734375 3.40625,-2.203125 7.265625,-2.203125 3.65625,0 6.609375,1.953125 2.953125,1.953125 4.171875,5.3125 1.71875,-3.0625 4.375,-5.15625 2.65625,-2.109375 5.828125,-2.109375 2.15625,0 4.390625,0.765625 2.25,0.75 3.671875,2.3125 1.421875,1.5625 1.421875,3.90625 0,2.53125 -1.640625,4.375 Q 49.3125,-31 46.78125,-31 q -1.609375,0 -2.6875,-1.03125 -1.078125,-1.03125 -1.078125,-2.59375 0,-2.09375 1.4375,-3.671875 1.453125,-1.59375 3.453125,-1.890625 -1.8125,-1.421875 -4.984375,-1.421875 -3.21875,0 -5.59375,2.984375 -2.359375,2.984375 -3.34375,6.640625 L 29.59375,-14.3125 q -1.078125,4.015625 -1.078125,6.59375 0,2.546875 1.4375,4.375 1.4375,1.828125 3.84375,1.828125 4.6875,0 8.359375,-4.125 3.6875,-4.125 4.859375,-9.0625 0.203125,-0.578125 0.78125,-0.578125 h 1.234375 q 0.390625,0 0.625,0.265625 0.25,0.265625 0.25,0.609375 0,0.09375 -0.09375,0.296875 -1.421875,5.953125 -5.96875,10.59375 Q 39.3125,1.125 33.59375,1.125 q -3.65625,0 -6.609375,-1.96875 -2.953125,-1.984375 -4.1875,-5.359375 -1.5625,2.9375 -4.328125,5.140625 -2.75,2.1875 -5.875,2.1875 -2.140625,0 -4.421875,-0.765625 -2.265625,-0.75 -3.6875,-2.3125 -1.40625,-1.5625 -1.40625,-3.953125 0,-2.34375 1.625,-4.265625 1.640625,-1.9375 4.09375,-1.9375 1.65625,0 2.78125,1 1.125,1 1.125,2.609375 0,2.109375 -1.40625,3.671875 Q 9.90625,-3.265625 7.8125,-2.875" /><path
       id="m3400efa6b1638b3fea9e19e898273957-7"
       d="M 0,0 H 4" /><path
       id="mb39cfcf7402899e54c4d755745537394-6"
       d="M 0,0 H 2" /><path
       id="c_322d44ed1377de836f22e8890a965a87-5"
       d="m 9.71875,16.5 q 1.859375,1.421875 4.484375,1.421875 3.578125,0 5.8125,-7.90625 0.9375,-3.8125 5.078125,-25.109375 l 4.59375,-24.5 h -8.59375 q -0.96875,0 -0.96875,-1.328125 0.390625,-2.1875 1.265625,-2.1875 h 8.9375 l 1.171875,-6.5 q 0.578125,-3.03125 1.0625,-5.203125 0.5,-2.171875 1.0625,-4.015625 0.5625,-1.859375 1.671875,-4.15625 1.71875,-3.28125 4.625,-5.40625 2.90625,-2.125 6.265625,-2.125 2.203125,0 4.28125,0.8125 2.078125,0.8125 3.390625,2.421875 1.3125,1.609375 1.3125,3.796875 0,2.546875 -1.6875,4.4375 -1.671875,1.875 -4.0625,1.875 -1.625,0 -2.765625,-1 -1.140625,-1.015625 -1.140625,-2.625 0,-2.1875 1.484375,-3.828125 1.484375,-1.640625 3.6875,-1.875 -1.859375,-1.421875 -4.59375,-1.421875 -1.515625,0 -2.859375,1.421875 -1.34375,1.40625 -1.734375,3.015625 -0.625,2.546875 -2.78125,13.78125 L 37.5,-43.109375 h 10.296875 q 0.984375,0 0.984375,1.3125 -0.04687,0.25 -0.203125,0.859375 -0.140625,0.609375 -0.40625,0.984375 -0.265625,0.359375 -0.65625,0.359375 H 36.8125 l -4.640625,24.40625 q -0.875,5.328125 -2.03125,10.828125 Q 29,1.125 26.921875,6.90625 q -2.0625,5.796875 -5.296875,9.703125 -3.21875,3.90625 -7.609375,3.90625 -3.375,0 -6.03125,-1.9375 -2.65625,-1.921875 -2.65625,-5.09375 0,-2.546875 1.625,-4.4375 1.640625,-1.875 4.125,-1.875 1.671875,0 2.78125,1 1.125,1.015625 1.125,2.625 0,2.140625 -1.59375,3.921875 Q 11.8125,16.5 9.71875,16.5" /><path
       id="c_06a7a4502300c60b4feec85758ecf628-6"
       d="M 31,24.8125 Q 25.4375,20.40625 21.40625,14.71875 17.390625,9.03125 14.8125,2.578125 12.25,-3.859375 10.984375,-10.890625 9.71875,-17.921875 9.71875,-25 q 0,-7.171875 1.265625,-14.203125 1.265625,-7.03125 3.875,-13.53125 2.625,-6.5 6.671875,-12.15625 Q 25.59375,-70.5625 31,-74.8125 31,-75 31.5,-75 h 0.921875 q 0.296875,0 0.53125,0.265625 0.25,0.265625 0.25,0.609375 0,0.4375 -0.1875,0.640625 -4.890625,4.78125 -8.140625,10.25 -3.25,5.46875 -5.234375,11.65625 -1.96875,6.171875 -2.84375,12.796875 -0.875,6.609375 -0.875,13.78125 0,31.78125 16.984375,48.296875 0.296875,0.28125 0.296875,0.828125 0,0.234375 -0.265625,0.546875 Q 32.671875,25 32.421875,25 H 31.5 Q 31,25 31,24.8125" /><path
       id="c_29ef64aee4661a11ab58096c18171e9e-2"
       d="m 9.90625,18.015625 q 0,-0.4375 0.203125,-0.625 Q 17.09375,9.8125 17.09375,-0.390625 V -0.875 Q 15.625,0 13.921875,0 11.625,0 10.015625,-1.609375 8.40625,-3.21875 8.40625,-5.515625 q 0,-2.34375 1.609375,-3.90625 1.609375,-1.5625 3.90625,-1.5625 3.46875,0 4.609375,3.203125 1.140625,3.1875 1.140625,7.390625 0,3.515625 -0.859375,6.9375 -0.84375,3.421875 -2.578125,6.6875 Q 14.5,16.5 12.109375,19.09375 11.8125,19.390625 11.375,19.390625 q -0.484375,0 -0.984375,-0.453125 Q 9.90625,18.5 9.90625,18.015625 m -1.5,-55.609375 q 0,-1.421875 0.71875,-2.6875 0.734375,-1.265625 2.03125,-2.046875 1.296875,-0.78125 2.765625,-0.78125 1.40625,0 2.703125,0.78125 1.296875,0.78125 2.03125,2.046875 0.734375,1.265625 0.734375,2.6875 0,2.234375 -1.59375,3.875 -1.578125,1.640625 -3.875,1.640625 -2.25,0 -3.890625,-1.640625 -1.625,-1.640625 -1.625,-3.875" /><path
       id="c_3260b495c6402fff66ed286585579e9c-8"
       d="m 2.78125,18.796875 q 0,-0.578125 0.09375,-0.78125 l 14.703125,-59.03125 q 0.4375,-1.421875 1.578125,-2.296875 1.15625,-0.875 2.625,-0.875 1.265625,0 2.140625,0.765625 0.890625,0.75 0.890625,2.015625 0,0.296875 -0.03125,0.46875 -0.03125,0.171875 -0.07813,0.359375 L 18.79687,-17.1875 q -0.96875,4.15625 -0.96875,7.171875 0,3.71875 1.75,6.109375 1.765625,2.390625 5.328125,2.390625 7.265625,0 12.796875,-9.078125 0.04687,-0.09375 0.0625,-0.140625 0.03125,-0.0625 0.03125,-0.15625 l 7.21875,-29 q 0.34375,-1.328125 1.5625,-2.265625 1.21875,-0.953125 2.640625,-0.953125 1.171875,0 2.078125,0.78125 0.90625,0.78125 0.90625,2.046875 0,0.578125 -0.109375,0.78125 l -7.171875,28.8125 q -0.734375,2.828125 -0.734375,4.875 0,4.296875 2.9375,4.296875 3.125,0 4.703125,-3.859375 1.59375,-3.859375 2.765625,-9.328125 0.1875,-0.578125 0.828125,-0.578125 h 1.171875 q 0.390625,0 0.65625,0.3125 0.265625,0.3125 0.265625,0.65625 -1.75,6.984375 -3.828125,11.21875 Q 51.60937,1.125 46.92187,1.125 q -3.3125,0 -5.875,-1.90625 -2.5625,-1.90625 -3.34375,-5.125 -2.5,3.125 -5.84375,5.078125 Q 28.515625,1.125 24.8125,1.125 q -6.25,0 -9.828125,-2.9375 L 9.90625,18.40625 q -0.28125,1.421875 -1.453125,2.296875 -1.171875,0.875 -2.640625,0.875 -1.21875,0 -2.125,-0.765625 -0.90625,-0.75 -0.90625,-2.015625" /><path
       id="c_01bd98e0cf1b355b13e73042b8c9bdee-5"
       d="m 9.90625,18.015625 q 0,-0.4375 0.390625,-0.828125 3.625,-3.46875 5.625,-8.015625 2,-4.53125 2,-9.5625 v -1.21875 Q 16.3125,0 13.921875,0 11.625,0 10.015625,-1.609375 8.40625,-3.21875 8.40625,-5.515625 q 0,-2.34375 1.609375,-3.90625 1.609375,-1.5625 3.90625,-1.5625 3.5625,0 5.078125,3.296875 1.515625,3.296875 1.515625,7.296875 0,5.5625 -2.234375,10.5625 Q 16.0625,15.1875 12.015625,19.1875 11.625,19.390625 11.375,19.390625 q -0.484375,0 -0.984375,-0.453125 Q 9.90625,18.5 9.90625,18.015625" /><path
       id="c_881ffaa3ac189934f18d018de3d82979-4"
       d="M 18.703125,1.125 Q 14.265625,1.125 10.8125,-1 7.375,-3.125 5.484375,-6.734375 q -1.875,-3.625 -1.875,-7.96875 0,-4.640625 2.09375,-9.765625 2.109375,-5.125 5.75,-9.375 3.640625,-4.25 8.21875,-6.75 4.59375,-2.515625 9.4375,-2.515625 h 25.1875 q 1.03125,0 1.75,0.6875 0.734375,0.671875 0.734375,1.84375 0,1.46875 -1.046875,2.5625 -1.046875,1.09375 -2.515625,1.09375 H 41.015625 q 2.875,4.296875 2.875,10.40625 0,5.03125 -1.953125,9.921875 -1.953125,4.875 -5.421875,8.90625 Q 33.0625,-3.65625 28.4375,-1.265625 23.828125,1.125 18.703125,1.125 m 0.09375,-2.640625 q 5.46875,0 9.6875,-4.265625 4.234375,-4.28125 6.46875,-10.453125 2.25,-6.171875 2.25,-11.453125 0,-4.296875 -2.375,-6.765625 -2.359375,-2.46875 -6.609375,-2.46875 -5.8125,0 -9.890625,3.90625 -4.0625,3.90625 -6.09375,9.828125 -2.03125,5.90625 -2.03125,11.375 0,4.296875 2.265625,7.296875 2.28125,3 6.328125,3" /><path
       id="c_b865a8a4692360a5eaaff4ecf56eccf7-5"
       d="m 6.5,25 q -0.890625,0 -0.890625,-0.875 0,-0.4375 0.203125,-0.640625 Q 22.90625,6.78125 22.90625,-25 22.90625,-56.78125 6,-73.296875 5.609375,-73.53125 5.609375,-74.125 q 0,-0.34375 0.265625,-0.609375 Q 6.15625,-75 6.5,-75 h 0.921875 q 0.296875,0 0.484375,0.1875 7.1875,5.671875 11.96875,13.78125 4.78125,8.09375 7,17.28125 2.234375,9.171875 2.234375,18.75 0,7.078125 -1.203125,13.9375 -1.203125,6.859375 -3.8125,13.515625 -2.609375,6.671875 -6.609375,12.3125 -4,5.640625 -9.578125,10.046875 Q 7.71875,25 7.421875,25 Z" /><path
       id="c_7bbc93c01755cdeb977d08bdfb9ce616-7"
       d="m 7.515625,-13.28125 q -0.828125,0 -1.375,-0.625 -0.53125,-0.640625 -0.53125,-1.375 0,-0.828125 0.53125,-1.40625 0.546875,-0.59375 1.375,-0.59375 H 70.3125 q 0.734375,0 1.265625,0.59375 0.546875,0.578125 0.546875,1.40625 0,0.734375 -0.546875,1.375 -0.53125,0.625 -1.265625,0.625 z m 0,-19.4375 q -0.828125,0 -1.375,-0.578125 -0.53125,-0.59375 -0.53125,-1.421875 0,-0.734375 0.53125,-1.359375 0.546875,-0.640625 1.375,-0.640625 H 70.3125 q 0.734375,0 1.265625,0.640625 0.546875,0.625 0.546875,1.359375 0,0.828125 -0.546875,1.421875 -0.53125,0.578125 -1.265625,0.578125 z" /><path
       id="c_1a459ac34855d27ec37ccb0e66298d36-8"
       d="m 9.28125,0 v -3.515625 q 12.5,0 12.5,-3.171875 v -52.5 q -5.171875,2.5 -13.09375,2.5 v -3.515625 q 12.265625,0 18.515625,-6.40625 h 1.40625 q 0.34375,0 0.65625,0.28125 0.328125,0.265625 0.328125,0.609375 V -6.6875 q 0,3.171875 12.5,3.171875 V 0 Z" /><path
       id="c_2bb5da3abbc13154082a2b872a7b9434-4"
       d="m 42.390625,116.01563 -22.5625,-52.531255 -7.03125,5.40625 -1.8125,-1.796875 L 25.296875,56 46.390625,105.07813 98.296875,-3.078125 Q 98.78125,-4 100,-4 q 0.82813,0 1.40625,0.59375 Q 102,-2.828125 102,-2 q 0,0.484375 -0.0937,0.6875 L 46.0938,115.09375 q -0.390625,0.92188 -1.515625,0.92188 z" /><path
       id="c_1210e7f4d85518601ea3049211d562d0-6"
       d="m 4.984375,0 v -2.6875 q 0,-0.25 0.1875,-0.53125 l 15.53125,-17.1875 q 3.515625,-3.8125 5.703125,-6.390625 2.203125,-2.59375 4.34375,-5.96875 2.15625,-3.375 3.40625,-6.859375 1.25,-3.484375 1.25,-7.390625 0,-4.109375 -1.515625,-7.84375 Q 32.375,-58.59375 29.375,-60.84375 q -3,-2.25 -7.25,-2.25 -4.34375,0 -7.8125,2.625 -3.46875,2.609375 -4.890625,6.75 Q 9.8125,-53.8125 10.5,-53.8125 q 2.25,0 3.828125,1.515625 1.59375,1.515625 1.59375,3.90625 0,2.296875 -1.59375,3.890625 Q 12.75,-42.921875 10.5,-42.921875 q -2.34375,0 -3.9375,-1.625 -1.578125,-1.640625 -1.578125,-3.84375 0,-3.765625 1.40625,-7.046875 1.421875,-3.296875 4.078125,-5.859375 2.671875,-2.578125 6.015625,-3.9375 3.34375,-1.375 7.09375,-1.375 5.71875,0 10.640625,2.421875 4.9375,2.421875 7.8125,6.84375 2.890625,4.40625 2.890625,10.328125 0,4.34375 -1.90625,8.25 -1.90625,3.90625 -4.890625,7.109375 -2.96875,3.1875 -7.609375,7.25 Q 25.875,-20.359375 24.421875,-19 L 13.09375,-8.109375 h 9.609375 q 7.078125,0 11.84375,-0.109375 4.765625,-0.125 5.046875,-0.375 Q 40.765625,-9.859375 42,-17.828125 h 2.921875 L 42.09375,0 Z" /><path
       id="c_dc1dfbded6c1a708bd2ce45e5309b560-8"
       d="m 10.109375,-1.703125 q 0,-0.546875 0.390625,-1.625 2.78125,-5.796875 5.1875,-11.390625 2.421875,-5.59375 4.34375,-10.890625 1.9375,-5.296875 3.546875,-11.3125 H 17.1875 q -3.65625,0 -6.84375,2.296875 -3.171875,2.296875 -5.265625,5.8125 -0.1875,0.390625 -0.578125,0.390625 H 3.328125 q -0.9375,0 -0.9375,-0.96875 0,-0.203125 0.203125,-0.59375 3.265625,-5.5625 7,-9.34375 3.734375,-3.78125 8.421875,-3.78125 h 36.28125 q 1.03125,0 1.75,0.6875 0.734375,0.671875 0.734375,1.84375 0,1.46875 -1.046875,2.5625 -1.046875,1.09375 -2.515625,1.09375 H 40.484375 q -1.609375,7.875 -1.765625,15.34375 0,9.609375 3.375,17.375 0.296875,0.59375 0.296875,1.21875 0,1.078125 -0.640625,2.015625 -0.640625,0.921875 -1.640625,1.5 -1,0.59375 -2.125,0.59375 -2.625,0 -3.609375,-4.296875 -0.96875,-4.296875 -0.96875,-8.359375 0,-5.703125 0.96875,-11 0.984375,-5.296875 3.125,-14.390625 H 26.609375 q -7.90625,32.03125 -9.515625,35.3125 Q 15.671875,1.125 13.1875,1.125 q -1.21875,0 -2.15625,-0.8125 -0.921875,-0.796875 -0.921875,-2.015625" /><path
       id="c_67a1adfdf9fbdb7189c9402c3f73ee06-9"
       d="m 20.125,1.125 q -4.796875,0 -8.390625,-2.484375 -3.578125,-2.5 -5.46875,-6.71875 -1.875,-4.234375 -1.875,-8.921875 0,-7.125 3.59375,-13.390625 3.59375,-6.28125 9.734375,-10.03125 6.15625,-3.765625 13.1875,-3.765625 4.296875,0 7.5,2.21875 3.203125,2.21875 3.203125,6.375 0,5.765625 -4.59375,8.578125 -4.59375,2.796875 -10.359375,3.453125 -5.75,0.65625 -12.734375,0.65625 H 13.625 q -1.609375,5.96875 -1.609375,10.203125 0,4.453125 2.046875,7.828125 2.046875,3.359375 6.25,3.359375 5.953125,0 11.4375,-2.734375 5.5,-2.734375 8.96875,-7.5625 0.296875,-0.296875 0.78125,-0.296875 0.5,0 1,0.5625 0.515625,0.5625 0.515625,1.046875 0,0.390625 -0.1875,0.59375 -3.671875,5.125 -9.875,8.078125 Q 26.765625,1.125 20.125,1.125 m -5.921875,-26.609375 q 5.8125,0 10.75,-0.53125 4.9375,-0.546875 8.9375,-2.71875 4,-2.171875 4,-6.765625 0,-1.859375 -1.03125,-3.25 -1.015625,-1.390625 -2.65625,-2.125 -1.640625,-0.734375 -3.390625,-0.734375 -4.25,0 -7.640625,2.296875 -3.390625,2.296875 -5.59375,5.984375 -2.203125,3.6875 -3.375,7.84375" /><path
       id="c_61c20b1e4c944de7566e5fda525fb070-9"
       d="m 10.203125,-23 q -0.828125,0 -1.375,-0.625 -0.53125,-0.640625 -0.53125,-1.375 0,-0.734375 0.53125,-1.359375 Q 9.375,-27 10.203125,-27 h 57.375 q 0.78125,0 1.296875,0.640625 0.515625,0.625 0.515625,1.359375 0,0.734375 -0.515625,1.375 Q 68.359375,-23 67.578125,-23 Z" /><path
       id="c_a764f622c6f118158a993ace88ddaf97-1"
       d="m 3.078125,0 v -3.515625 q 3.421875,0 5.609375,-0.53125 2.203125,-0.546875 2.203125,-2.640625 v -52.5 q 0,-2.671875 -0.8125,-3.875 -0.796875,-1.203125 -2.3125,-1.46875 Q 6.25,-64.796875 3.078125,-64.796875 V -68.3125 l 14.84375,-1.078125 V -6.6875 q 0,2.09375 2.1875,2.640625 2.203125,0.53125 5.578125,0.53125 V 0 Z" /><path
       id="c_f29dbb720c0206d930ab49b6b497324a-7"
       d="m 2.984375,0 v -3.515625 q 3.40625,0 5.609375,-0.53125 2.203125,-0.546875 2.203125,-2.640625 v -27.296875 q 0,-2.6875 -0.8125,-3.875 -0.796875,-1.203125 -2.3125,-1.46875 -1.515625,-0.265625 -4.6875,-0.265625 v -3.515625 l 14.5,-1.078125 v 9.765625 q 2,-4.296875 5.921875,-7.03125 3.9375,-2.734375 8.578125,-2.734375 6.9375,0 10.421875,3.328125 3.5,3.3125 3.5,10.140625 V -6.6875 q 0,2.09375 2.1875,2.640625 2.203125,0.53125 5.625,0.53125 V 0 H 30.8125 v -3.515625 q 3.421875,0 5.609375,-0.53125 Q 38.625,-4.59375 38.625,-6.6875 v -23.734375 q 0,-4.875 -1.421875,-8.03125 -1.40625,-3.15625 -5.8125,-3.15625 -5.796875,0 -9.546875,4.640625 -3.734375,4.640625 -3.734375,10.546875 V -6.6875 q 0,2.09375 2.203125,2.640625 2.203125,0.53125 5.5625,0.53125 V 0 Z" /><path
       id="c_f47f2818876b2f1a61c47f270461e46e-2"
       d="M 25,2.203125 Q 12.75,2.203125 8.328125,-7.875 3.90625,-17.96875 3.90625,-31.890625 q 0,-8.6875 1.578125,-16.34375 Q 7.078125,-55.90625 11.78125,-61.25 16.5,-66.609375 25,-66.609375 q 6.59375,0 10.78125,3.234375 4.203125,3.21875 6.40625,8.328125 2.203125,5.09375 3,10.9375 Q 46,-38.28125 46,-31.890625 q 0,8.59375 -1.59375,16.09375 -1.578125,7.5 -6.21875,12.75 -4.640625,5.25 -13.1875,5.25 m 0,-2.59375 q 5.5625,0 8.296875,-5.703125 2.734375,-5.71875 3.375,-12.65625 0.640625,-6.9375 0.640625,-14.75 0,-7.515625 -0.640625,-13.859375 -0.640625,-6.359375 -3.359375,-11.5 -2.703125,-5.15625 -8.3125,-5.15625 -5.65625,0 -8.390625,5.1875 -2.734375,5.171875 -3.375,11.5 -0.640625,6.3125 -0.640625,13.828125 0,5.5625 0.265625,10.5 0.28125,4.9375 1.453125,10.1875 1.171875,5.25 3.78125,8.84375 2.609375,3.578125 6.90625,3.578125" /><path
       id="c_83c92fcf7184248154f741f54a0382f5-0"
       d="M 11.71875,-12.40625 H 22.015625 V -4 l -8,15.625 H 7.71875 l 4,-15.625 z" /><path
       id="c_d41d8cd98f00b204e9800998ecf8427e-2"
       d="" /><path
       id="c_8b48a7401ae680eb5f4c605f13a7b112-2"
       d="m 8.40625,-5.515625 q 0,-2.25 1.65625,-3.859375 1.65625,-1.609375 3.859375,-1.609375 1.359375,0 2.671875,0.734375 1.328125,0.734375 2.0625,2.046875 0.734375,1.3125 0.734375,2.6875 0,2.1875 -1.625,3.859375 Q 16.15625,0 13.921875,0 11.71875,0 10.0625,-1.65625 8.40625,-3.328125 8.40625,-5.515625" /><path
       id="c_7d09e94cce4bdf71f2297f5bbc354b76-6"
       d="m 8.6875,-11.375 q 1.03125,2.921875 3.15625,5.328125 2.125,2.390625 5.03125,3.734375 2.90625,1.328125 6.03125,1.328125 7.21875,0 9.953125,-5.609375 2.734375,-5.609375 2.734375,-13.625 0,-3.46875 -0.125,-5.828125 -0.109375,-2.375 -0.65625,-4.5625 -0.921875,-3.515625 -3.25,-6.15625 -2.3125,-2.640625 -5.6875,-2.640625 -3.359375,0 -5.78125,1.03125 -2.421875,1.015625 -3.9375,2.390625 -1.5,1.359375 -2.671875,2.875 Q 12.3125,-31.59375 12.015625,-31.5 h -1.125 q -0.25,0 -0.625,-0.3125 Q 9.90625,-32.125 9.90625,-32.421875 v -33.40625 q 0,-0.234375 0.3125,-0.5 0.328125,-0.28125 0.671875,-0.28125 H 11.1875 q 6.734375,3.234375 14.296875,3.234375 7.421875,0 14.3125,-3.234375 h 0.296875 q 0.34375,0 0.625,0.25 0.296875,0.25 0.296875,0.53125 v 0.9375 q 0,0.484375 -0.1875,0.484375 -3.421875,4.546875 -8.578125,7.09375 -5.15625,2.53125 -10.671875,2.53125 -4,0 -8.203125,-1.125 v 18.890625 q 3.328125,-2.6875 5.9375,-3.828125 Q 21.921875,-42 25.984375,-42 q 5.515625,0 9.875,3.1875 4.375,3.171875 6.71875,8.28125 2.34375,5.09375 2.34375,10.40625 0,6.015625 -2.953125,11.140625 -2.953125,5.125 -8.03125,8.15625 -5.078125,3.03125 -11.03125,3.03125 -4.9375,0 -9.0625,-2.53125 -4.125,-2.546875 -6.5,-6.84375 -2.359375,-4.296875 -2.359375,-9.140625 0,-2.25 1.453125,-3.65625 1.46875,-1.421875 3.671875,-1.421875 2.203125,0 3.6875,1.453125 1.484375,1.4375 1.484375,3.625 0,2.15625 -1.484375,3.640625 -1.484375,1.484375 -3.6875,1.484375 -0.34375,0 -0.78125,-0.0625 -0.4375,-0.07813 -0.640625,-0.125" /><clipPath
       id="p5f3e21647a25230cb35632d91e80615e-9-1"><rect
         x="64.300003"
         y="10.8"
         width="390.60001"
         height="403.20001"
         id="rect2-6-7" /></clipPath><linearGradient
       inkscape:collect="always"
       xlink:href="#swatch163"
       id="linearGradient163"
       x1="27.062931"
       y1="27.931345"
       x2="27.311829"
       y2="27.931345"
       gradientUnits="userSpaceOnUse"
       gradientTransform="translate(0.03507913)" /><linearGradient
       inkscape:collect="always"
       xlink:href="#swatch163"
       id="linearGradient164"
       x1="56.620834"
       y1="27.931343"
       x2="56.869732"
       y2="27.931343"
       gradientUnits="userSpaceOnUse"
       gradientTransform="translate(0.33072917)" /><linearGradient
       inkscape:collect="always"
       xlink:href="#swatch163"
       id="linearGradient165"
       x1="96.837502"
       y1="27.931345"
       x2="97.086395"
       y2="27.931345"
       gradientUnits="userSpaceOnUse"
       gradientTransform="translate(-0.0578776)" /></defs><g
     inkscape:label="Layer 1"
     inkscape:groupmode="layer"
     id="layer1"><path
       id="path2846-2"
       style="display:inline;fill:none;fill-rule:evenodd;stroke:#000000;stroke-width:0.396875;stroke-linecap:butt;stroke-linejoin:miter;stroke-miterlimit:4;stroke-dasharray:none;stroke-opacity:1"
       d="m 38.526019,40.295856 -3.512397,-0.0076 c -1.562738,-7.99e-4 -2.233011,-0.221504 -2.572335,-0.51217 -1.599402,-1.370055 -1.98887,-4.853502 -2.804919,-9.823164 -1.028081,-6.260921 -1.530609,-12.389643 -2.401306,-12.389643 -0.870697,0 -1.373224,6.128722 -2.401306,12.389643 -0.816049,4.969662 -1.205517,8.453109 -2.804919,9.823164 -0.339324,0.290666 -1.009596,0.511286 -2.572336,0.512171 l -2.947858,0.0076"
       sodipodi:nodetypes="ccssssscc" /><path
       style="fill:none;stroke:#000000;stroke-width:0.396875;stroke-linecap:square;stroke-linejoin:round;stroke-dasharray:none;stroke-opacity:1"
       clip-path="none"
       d="m 48.542366,40.289077 c 0.825835,-0.02873 1.87458,0.185359 2.412411,-0.627934 1.010613,-1.55784 1.350823,-3.428122 1.88886,-5.179534 0.735726,-2.510224 1.262967,-5.129229 2.535915,-7.439454 0.404961,-0.749997 1.233419,-1.573116 2.154537,-1.179229 1.386378,0.669353 2.214451,2.055762 3.157234,3.211414 2.196879,2.971692 4.532641,6.006746 7.808271,7.856363 3.845669,2.208832 8.38081,2.676019 12.719979,2.976049"
       id="path4" /><path
       id="path2846-2-5"
       style="display:inline;fill:none;fill-rule:evenodd;stroke:#000000;stroke-width:0.396875;stroke-linecap:butt;stroke-linejoin:miter;stroke-miterlimit:4;stroke-dasharray:none;stroke-opacity:1"
       d="m 128.40685,40.176092 c -0.50639,-0.005 -1.04191,-0.0686 -1.18503,-0.131633 -0.25516,-0.112373 -0.26333,-0.642444 -0.37137,-1.300369 -0.1361,-0.828871 -0.20261,-1.640278 -0.31788,-1.640278 -0.11527,0 -0.18177,0.811407 -0.31787,1.640278 -0.10804,0.657925 -0.15963,1.118986 -0.37137,1.300369 -0.0188,0.01602 -0.0458,0.0304 -0.0852,0.04179 -2.95149,-0.11824 -5.89465,-0.339387 -8.48474,-0.895267 -2.89895,-0.611647 -4.96609,-1.615328 -6.91034,-2.598032 -0.83436,-0.382161 -1.56722,-0.840667 -2.79418,-1.062017 -0.8152,-0.130252 -1.54835,0.1419 -1.90675,0.389916 -1.12656,0.763966 -1.59323,1.630036 -2.24436,2.460141 -0.47617,0.579171 -0.77724,1.197692 -1.67163,1.712854 -0.53331,0.301329 -1.4635,0.188372 -1.799667,-0.201141 -0.930757,-1.078482 -1.157344,-3.820553 -1.632241,-7.73258 -0.598287,-4.928489 -0.890777,-9.752902 -1.397474,-9.752902 v 4e-6 c -0.506697,0 -0.799082,4.824413 -1.397371,9.752902 -0.474891,3.912027 -0.701594,6.654098 -1.632354,7.73258 -0.19747,0.228803 -0.587533,0.402452 -1.496958,0.403149"
       sodipodi:nodetypes="cssssscccccccssssssc" /><text
       xml:space="preserve"
       style="font-size:4.93889px;font-family:Verdana;-inkscape-font-specification:Verdana;text-align:center;text-anchor:middle;fill:#000000;stroke:none;stroke-width:0.529167;stroke-linecap:round;stroke-linejoin:round;stroke-dasharray:none;stroke-opacity:1"
       x="27.943254"
       y="54.910339"
       id="text39"><tspan
         sodipodi:role="line"
         id="tspan39"
         style="font-size:4.93889px;stroke:none;stroke-width:0.529167"
         x="27.943254"
         y="54.910339">Normal</tspan></text><text
       xml:space="preserve"
       style="font-size:4.93889px;font-family:Verdana;-inkscape-font-specification:Verdana;text-align:center;text-anchor:middle;fill:#000000;stroke:none;stroke-width:0.529167;stroke-linecap:round;stroke-linejoin:round;stroke-dasharray:none;stroke-opacity:1"
       x="63.916855"
       y="53.965004"
       id="text39-8"><tspan
         sodipodi:role="line"
         id="tspan39-7"
         style="font-size:4.93889px;stroke:none;stroke-width:0.529167"
         x="63.916855"
         y="53.965004">Log-normal</tspan></text><text
       xml:space="preserve"
       style="font-size:4.93889px;font-family:Verdana;-inkscape-font-specification:Verdana;text-align:center;text-anchor:middle;fill:#000000;stroke:none;stroke-width:0.529167;stroke-linecap:round;stroke-linejoin:round;stroke-dasharray:none;stroke-opacity:1"
       x="111.52089"
       y="53.991531"
       id="text40"><tspan
         sodipodi:role="line"
         id="tspan40"
         style="font-size:4.93889px;stroke-width:0.529167"
         x="111.52089"
         y="53.991531">Typical benchmark</tspan></text><path
       style="fill:url(#linearGradient163);fill-opacity:1;stroke:#0f67e5;stroke-width:0.248895;stroke-linecap:round;stroke-linejoin:round;stroke-dasharray:1.49337, 1.49337;stroke-dashoffset:0;stroke-opacity:1"
       d="m 27.222459,15.492844 c 0,24.877002 0,24.877002 0,24.877002"
       id="path163" /><path
       style="fill:url(#linearGradient164);fill-opacity:1;stroke:#0f67e5;stroke-width:0.248895;stroke-linecap:round;stroke-linejoin:round;stroke-dasharray:1.49337, 1.49337;stroke-dashoffset:0;stroke-opacity:1"
       d="m 57.076012,15.492843 c 0,24.877003 0,24.877003 0,24.877003"
       id="path163-8" /><path
       style="fill:url(#linearGradient165);fill-opacity:1;stroke:#0f67e5;stroke-width:0.248895;stroke-linecap:round;stroke-linejoin:round;stroke-dasharray:1.49337, 1.49337;stroke-dashoffset:0;stroke-opacity:1"
       d="m 96.904072,15.492844 c 0,24.877002 0,24.877002 0,24.877002"
       id="path163-3" /><text
       xml:space="preserve"
       style="font-size:2.82222px;font-family:Verdana;-inkscape-font-specification:Verdana;text-align:center;text-anchor:middle;fill:#0d73c6;fill-opacity:1;stroke:none;stroke-width:0.264583;stroke-linecap:round;stroke-linejoin:round;stroke-dasharray:1.5875, 1.5875;stroke-dashoffset:0;stroke-opacity:1"
       x="57.282284"
       y="13.808455"
       id="text163"><tspan
         sodipodi:role="line"
         id="tspan163"
         style="font-size:2.82222px;fill:#0d73c6;fill-opacity:1;stroke:none;stroke-width:0.264583"
         x="57.282284"
         y="13.808455">Mode</tspan></text></g></svg>
