<?xml version="1.0" encoding="UTF-8" standalone="no"?>
<!-- Created with Inkscape (http://www.inkscape.org/) -->

<svg
   width="250"
   height="250"
   viewBox="0 0 66.145832 66.145833"
   version="1.1"
   id="svg1"
   xml:space="preserve"
   inkscape:version="1.3 (0e150ed6c4, 2023-07-21)"
   sodipodi:docname="logo.svg"
   xmlns:inkscape="http://www.inkscape.org/namespaces/inkscape"
   xmlns:sodipodi="http://sodipodi.sourceforge.net/DTD/sodipodi-0.dtd"
   xmlns:xlink="http://www.w3.org/1999/xlink"
   xmlns="http://www.w3.org/2000/svg"
   xmlns:svg="http://www.w3.org/2000/svg"><sodipodi:namedview
     id="namedview1"
     pagecolor="#ffffff"
     bordercolor="#000000"
     borderopacity="0.25"
     inkscape:showpageshadow="2"
     inkscape:pageopacity="0.0"
     inkscape:pagecheckerboard="0"
     inkscape:deskcolor="#d1d1d1"
     inkscape:document-units="mm"
     inkscape:zoom="2"
     inkscape:cx="279.25"
     inkscape:cy="88.75"
     inkscape:window-width="2496"
     inkscape:window-height="1601"
     inkscape:window-x="-8"
     inkscape:window-y="-8"
     inkscape:window-maximized="1"
     inkscape:current-layer="layer3"
     showgrid="false" /><defs
     id="defs1"><linearGradient
       id="linearGradient44"><stop
         style="stop-color:#ffffff;stop-opacity:1;"
         offset="0"
         id="stop43" /><stop
         style="stop-color:#f0f0f0;stop-opacity:1;"
         offset="1"
         id="stop44" /></linearGradient><linearGradient
       id="swatch40"><stop
         style="stop-color:#f2f2f2;stop-opacity:1;"
         offset="0"
         id="stop40" /></linearGradient><linearGradient
       id="swatch39"
       inkscape:swatch="solid"><stop
         style="stop-color:#666666;stop-opacity:1;"
         offset="0"
         id="stop39" /></linearGradient><pattern
       inkscape:collect="always"
       xlink:href="#Strips1_1.5"
       preserveAspectRatio="xMidYMid"
       id="pattern36"
       patternTransform="scale(1.3)"
       x="0"
       y="0" /><pattern
       inkscape:collect="always"
       xlink:href="#Strips1_1.5"
       preserveAspectRatio="xMidYMid"
       id="pattern35"
       patternTransform="scale(1.3)"
       x="0"
       y="0" /><pattern
       inkscape:collect="always"
       patternUnits="userSpaceOnUse"
       width="2.5"
       height="1"
       patternTransform="translate(0,0) scale(2,2)"
       preserveAspectRatio="xMidYMid"
       id="Strips1_1.5"
       style="fill:#222222"
       inkscape:stockid="Stripes 02 (2:3)"
       inkscape:isstock="true"
       inkscape:label="Stripes 02 (2:3)">&#10;      <rect
   style="stroke:none"
   x="0"
   y="-0.5"
   width="1"
   height="2"
   id="rect140" />&#10;    </pattern><linearGradient
       id="linearGradient2"
       inkscape:swatch="gradient"><stop
         style="stop-color:#5ae6ab;stop-opacity:1;"
         offset="0"
         id="stop2" /><stop
         style="stop-color:#bce798;stop-opacity:1;"
         offset="1"
         id="stop3" /></linearGradient><clipPath
       clipPathUnits="userSpaceOnUse"
       id="clipPath52"><path
         id="path52"
         style="stroke-width:0.1;stroke-linecap:square;paint-order:markers fill stroke;stop-color:#000000"
         d="m -880.82767,-187.29769 h 1640.84 v 73.28155 h -1640.84 z" /></clipPath><rect
       x="44.256393"
       y="122.42353"
       width="27.013641"
       height="24.139851"
       id="rect114" /><inkscape:perspective
       sodipodi:type="inkscape:persp3d"
       inkscape:vp_x="0 : -0.85417698 : 1"
       inkscape:vp_y="0 : 999.99997 : 0"
       inkscape:vp_z="720.00001 : -0.85417698 : 1"
       inkscape:persp3d-origin="360 : -77.520837 : 1"
       id="perspective289" /><clipPath
       id="cp3"><polygon
         id="polygon1797"
         points="73,203.563 95,203.563 95,190 73,190 " /></clipPath><clipPath
       id="cp5"><polygon
         id="polygon1821"
         points="73,203.563 95,203.563 95,190 73,190 " /></clipPath><clipPath
       id="cp7"><polygon
         id="polygon1845"
         points="73,203.563 88,203.563 88,190 73,190 " /></clipPath><clipPath
       id="cp9"><polygon
         id="polygon1867"
         points="73,203.563 88,203.563 88,190 73,190 " /></clipPath><clipPath
       id="cp10"><polygon
         id="polygon1874"
         points="74,364 434,364 434,13 74,13 " /></clipPath><clipPath
       id="cp11"><polygon
         id="polygon1889"
         points="73,203.563 88,203.563 88,190 73,190 " /></clipPath><clipPath
       id="cp13"><polygon
         id="polygon1907"
         points="74,204 95,204 95,190 74,190 " /></clipPath><clipPath
       id="cp15"><polygon
         id="polygon1931"
         points="74,204 95,204 95,190 74,190 " /></clipPath><clipPath
       id="cp17"><polygon
         id="polygon1955"
         points="73,204 88,204 88,190 73,190 " /></clipPath><clipPath
       id="cp19"><polygon
         id="polygon1977"
         points="73,204 88,204 88,190 73,190 " /></clipPath><clipPath
       id="cp21"><polygon
         id="polygon1999"
         points="73,204 88,204 88,190 73,190 " /></clipPath><linearGradient
       inkscape:collect="always"
       xlink:href="#linearGradient44"
       id="linearGradient49"
       gradientUnits="userSpaceOnUse"
       gradientTransform="matrix(1.4142136,0,0,0.70710678,-589.85962,-903.87278)"
       x1="338.69067"
       y1="1124.8484"
       x2="338.69067"
       y2="1283.5221" /></defs><g
     inkscape:label="Layer 1"
     inkscape:groupmode="layer"
     id="layer1"
     transform="translate(-5.0000006,-4.9999994)"><g
       inkscape:label="Plot"
       style="display:inline"
       id="layer3"
       transform="matrix(0.26458333,0,0,0.26458333,5.3494107,5.982766)"><text
         xml:space="preserve"
         transform="translate(-20.218245,-22.612029)"
         id="text114"
         style="font-size:24px;font-family:Arial;-inkscape-font-specification:Arial;text-align:center;white-space:pre;shape-inside:url(#rect114);display:inline;fill:#323232;fill-opacity:0.55;stroke:none;stroke-width:7.46667;stroke-linecap:round;stroke-linejoin:round;stroke-dasharray:none;stroke-dashoffset:0;stroke-opacity:1" /><g
         id="g49"
         transform="translate(12.800762,12.800791)"><path
           style="display:inline;fill:#222222;fill-opacity:1;stroke:none;stroke-width:12.3002;stroke-linecap:round;stroke-linejoin:round;stroke-dasharray:none;stroke-dashoffset:0;stroke-opacity:1"
           id="path167-1"
           sodipodi:type="arc"
           sodipodi:cx="110.87866"
           sodipodi:cy="108.48482"
           sodipodi:rx="112.19921"
           sodipodi:ry="112.19921"
           sodipodi:start="0"
           sodipodi:end="3.1415927"
           sodipodi:arc-type="slice"
           d="m 223.07787,108.48482 a 112.19921,112.19921 0 0 1 -56.0996,97.16737 112.19921,112.19921 0 0 1 -112.199216,-1e-5 112.19921,112.19921 0 0 1 -56.099603,-97.16736 H 110.87866 Z" /><path
           style="display:inline;fill:url(#linearGradient49);fill-opacity:1;stroke:none;stroke-width:12.3002;stroke-linecap:round;stroke-linejoin:round;stroke-dasharray:none;stroke-dashoffset:0;stroke-opacity:1"
           id="path167-1-4"
           sodipodi:type="arc"
           sodipodi:cx="-110.87866"
           sodipodi:cy="-108.48482"
           sodipodi:rx="112.19921"
           sodipodi:ry="112.19921"
           sodipodi:start="0"
           sodipodi:end="3.1415927"
           sodipodi:arc-type="slice"
           d="m 1.320549,-108.48482 a 112.19921,112.19921 0 0 1 -56.099607,97.16737 112.19921,112.19921 0 0 1 -112.199212,-2e-6 112.19921,112.19921 0 0 1 -56.0996,-97.167368 h 112.19921 z"
           transform="scale(-1)" /><g
           id="g167"
           transform="matrix(1.0908596,0,0,1.0908596,-306.42953,-788.12975)"><path
             id="path106-1"
             style="display:inline;fill:none;fill-rule:evenodd;stroke:#222222;stroke-width:2.505;stroke-linecap:butt;stroke-linejoin:round;stroke-miterlimit:4;stroke-dasharray:none;stroke-opacity:1"
             d="m 485.31791,821.8276 -62.97839,0.0519 c -14.93539,-0.003 -21.34136,-0.68878 -24.58433,-1.59261 -15.28577,-4.26009 -19.00805,-15.09207 -26.80717,-30.54544 -9.82557,-19.46855 -14.62835,-38.52613 -22.94977,-38.52613 -8.32142,0 -13.12421,19.05758 -22.94976,38.52613 -7.79914,15.45337 -11.52144,26.28522 -26.80718,30.54557 -0.76752,0.21392 -1.37395,0.41731 -2.05054,0.6032 -2.18221,0.59957 -3.93003,1.02711 -15.33064,1.02921"
             sodipodi:nodetypes="cccsssssc" /><path
             id="path104-0"
             style="display:inline;fill:none;fill-rule:evenodd;stroke:#ffffff;stroke-width:2.57083;stroke-linecap:butt;stroke-linejoin:round;stroke-miterlimit:4;stroke-dasharray:none;stroke-opacity:1"
             d="m 416.28563,806.89059 c -13.54742,-9.06523 -20.16947,-17.9391 -31.64298,-17.9391 -11.47351,0 -18.09556,8.87387 -31.64297,17.9391 -10.75338,7.19562 -15.8856,12.23942 -36.96153,14.22309 -4.31818,0.40643 -14.98454,0.76887 -34.258,0.79439 -0.68389,9e-4 -1.37862,0.001 -2.08428,0.001"
             sodipodi:nodetypes="cssssc" /><path
             style="opacity:1;fill:url(#pattern35);fill-opacity:1;stroke:none;stroke-width:0.72008;stroke-linecap:round;stroke-linejoin:round;stroke-dasharray:none;stroke-dashoffset:0;stroke-opacity:1"
             d="m 302.43919,820.26891 c 0.13261,-0.0635 0.74302,-0.3383 1.35649,-0.61059 5.44214,-2.41556 9.86972,-6.49692 13.72493,-12.65171 1.39835,-2.23243 2.68017,-4.62008 5.50175,-10.24816 5.14025,-10.25302 6.36126,-12.85601 10.51774,-22.42218 3.88032,-8.93061 5.49744,-12.36502 7.15869,-15.20353 4.83614,-8.26327 8.89198,-8.74852 13.58371,-1.62517 2.07527,3.15084 3.58806,6.27304 8.3642,17.26267 3.26543,7.51358 4.6505,10.54747 6.86831,15.04457 l 1.16523,2.36276 -1.01201,0.67508 c -1.41423,0.94338 -3.57846,2.5605 -7.3281,5.47558 -3.93578,3.05979 -6.36393,4.87153 -8.64334,6.44907 -2.52728,1.74912 -7.84221,5.35473 -9.01709,6.11714 -7.0436,4.57074 -13.14247,6.7582 -22.80795,8.18043 -4.41949,0.65033 -8.90852,1.00692 -14.6588,1.16444 -1.06084,0.0292 -2.62316,0.0736 -3.47183,0.099 -1.24351,0.0372 -1.49623,0.0238 -1.30193,-0.0694 z"
             id="path115" /><path
             style="opacity:1;fill:url(#pattern36);fill-opacity:1;stroke:none;stroke-width:0.72008;stroke-linecap:round;stroke-linejoin:round;stroke-dasharray:none;stroke-dashoffset:0;stroke-opacity:1"
             d="m 414.93589,820.51378 c -5.98721,-0.11124 -11.50526,-0.49142 -14.53313,-1.00134 -3.59792,-0.6059 -7.5822,-2.17209 -10.63759,-4.18156 -4.69022,-3.08468 -7.90173,-7.09624 -12.1357,-15.159 -1.19532,-2.27623 -3.43928,-6.7941 -3.43928,-6.92445 0,-0.0362 0.64961,-0.384 1.44358,-0.77282 5.8969,-2.88781 11.99621,-2.91068 17.89254,-0.0671 3.0728,1.48191 5.32546,3.02246 11.86206,8.11223 5.82063,4.53228 6.79691,5.23237 15.67143,11.2382 6.76881,4.58077 11.18332,6.66189 17.69664,8.34259 l 1.83236,0.47283 -12.1996,-0.0181 c -6.70978,-0.0101 -12.76377,-0.0285 -13.45331,-0.0414 z"
             id="path116" /></g><text
           xml:space="preserve"
           style="font-style:normal;font-variant:normal;font-weight:normal;font-stretch:normal;font-size:51.2689px;font-family:Tahoma;-inkscape-font-specification:Tahoma;text-align:center;text-anchor:middle;fill:#ffffff;fill-opacity:1;stroke:none;stroke-width:7.17766;stroke-linecap:round;stroke-linejoin:round;stroke-dasharray:none;stroke-dashoffset:0;stroke-opacity:1"
           x="110.86224"
           y="166.28903"
           id="text169"><tspan
             sodipodi:role="line"
             id="tspan169"
             x="110.86224"
             y="166.28903"
             style="font-style:normal;font-variant:normal;font-weight:normal;font-stretch:normal;font-size:51.2689px;font-family:Urbanist;-inkscape-font-specification:Urbanist;fill:#ffffff;fill-opacity:1;stroke-width:7.17766">Repris</tspan></text><path
           style="display:inline;fill:#222222;fill-opacity:1;stroke:none;stroke-width:0.0367474;stroke-linecap:butt;stroke-linejoin:round;stroke-dasharray:none;stroke-opacity:1"
           d="m 32.007635,109.60231 c 0.31599,-0.0186 1.62856,-0.0959 2.91682,-0.17152 8.16667,-0.47975 16.30377,-1.87354 22.18548,-3.80013 5.35879,-1.75531 9.38578,-3.85856 15.9099,-8.309562 1.19103,-0.81257 3.33887,-2.27458 4.77297,-3.24893 4.26272,-2.89611 6.44935,-4.50085 11.9089,-8.73978 1.64149,-1.27449 3.74592,-2.88457 4.67651,-3.57796 1.59803,-1.1907 4.20899,-2.99085 4.73547,-3.26489 l 0.24025,-0.12506 2.297555,4.57491 c 3.93626,7.8379 6.45398,10.95789 9.22717,14.36076 0.98666,1.2107 3.68545,3.978072 4.77116,4.839252 2.44345,1.93813 5.26444,3.23943 8.29541,4.43815 3.61254,1.42872 7.44002,2.41946 12.81387,2.88812 0.53286,0.0465 -9.42068,0.0819 -22.02736,0.0893 -11.50119,0.007 -34.948405,0.0278 -52.104935,0.0467 -17.15653,0.019 -30.93515,0.0193 -30.61917,6e-4 z"
           id="path47"
           sodipodi:nodetypes="scsssssscssssscsss" /></g></g></g></svg>
